<?xml version="1.0" encoding="utf-8" standalone="no"?>
<!DOCTYPE svg PUBLIC "-//W3C//DTD SVG 1.1//EN"
  "http://www.w3.org/Graphics/SVG/1.1/DTD/svg11.dtd">
<svg xmlns:xlink="http://www.w3.org/1999/xlink" width="413.764981pt" height="316.675125pt" viewBox="0 0 413.764981 316.675125" xmlns="http://www.w3.org/2000/svg" version="1.1">
 <metadata>
  <rdf:RDF xmlns:dc="http://purl.org/dc/elements/1.1/" xmlns:cc="http://creativecommons.org/ns#" xmlns:rdf="http://www.w3.org/1999/02/22-rdf-syntax-ns#">
   <cc:Work>
    <dc:type rdf:resource="http://purl.org/dc/dcmitype/StillImage"/>
    <dc:date>2022-11-05T21:14:07.135837</dc:date>
    <dc:format>image/svg+xml</dc:format>
    <dc:creator>
     <cc:Agent>
      <dc:title>Matplotlib v3.5.3, https://matplotlib.org/</dc:title>
     </cc:Agent>
    </dc:creator>
   </cc:Work>
  </rdf:RDF>
 </metadata>
 <defs>
  <style type="text/css">*{stroke-linejoin: round; stroke-linecap: butt}</style>
 </defs>
 <g id="figure_1">
  <g id="patch_1">
   <path d="M 0 316.675125 
L 413.764981 316.675125 
L 413.764981 0 
L 0 0 
z
" style="fill: #ffffff"/>
  </g>
  <g id="axes_1">
   <g id="patch_2">
    <path d="M 46.41 273.312 
L 403.53 273.312 
L 403.53 7.2 
L 46.41 7.2 
z
" style="fill: #ffffff"/>
   </g>
   <g id="PathCollection_1">
    <defs>
     <path id="C0_0_a1cc20555f" d="M 0 3 
C 0.795609 3 1.55874 2.683901 2.12132 2.12132 
C 2.683901 1.55874 3 0.795609 3 -0 
C 3 -0.795609 2.683901 -1.55874 2.12132 -2.12132 
C 1.55874 -2.683901 0.795609 -3 0 -3 
C -0.795609 -3 -1.55874 -2.683901 -2.12132 -2.12132 
C -2.683901 -1.55874 -3 -0.795609 -3 0 
C -3 0.795609 -2.683901 1.55874 -2.12132 2.12132 
C -1.55874 2.683901 -0.795609 3 0 3 
z
"/>
    </defs>
    <g clip-path="url(#p9a6d02133d)">
     <use xlink:href="#C0_0_a1cc20555f" x="201.563495" y="180.576" style="fill: #00b33c; fill-opacity: 0.7"/>
    </g>
    <g clip-path="url(#p9a6d02133d)">
     <use xlink:href="#C0_0_a1cc20555f" x="230.57997" y="140.256" style="fill: #00b33c; fill-opacity: 0.7"/>
    </g>
    <g clip-path="url(#p9a6d02133d)">
     <use xlink:href="#C0_0_a1cc20555f" x="127.252271" y="140.256" style="fill: #00b33c; fill-opacity: 0.7"/>
    </g>
    <g clip-path="url(#p9a6d02133d)">
     <use xlink:href="#C0_0_a1cc20555f" x="316.108603" y="19.296" style="fill: #00b33c; fill-opacity: 0.7"/>
    </g>
    <g clip-path="url(#p9a6d02133d)">
     <use xlink:href="#C0_0_a1cc20555f" x="195.996543" y="19.296" style="fill: #00b33c; fill-opacity: 0.7"/>
    </g>
    <g clip-path="url(#p9a6d02133d)">
     <use xlink:href="#C0_0_a1cc20555f" x="208.565203" y="19.296" style="fill: #00b33c; fill-opacity: 0.7"/>
    </g>
    <g clip-path="url(#p9a6d02133d)">
     <use xlink:href="#C0_0_a1cc20555f" x="254.366039" y="180.576" style="fill: #00b33c; fill-opacity: 0.7"/>
    </g>
    <g clip-path="url(#p9a6d02133d)">
     <use xlink:href="#C0_0_a1cc20555f" x="328.085142" y="140.256" style="fill: #00b33c; fill-opacity: 0.7"/>
    </g>
    <g clip-path="url(#p9a6d02133d)">
     <use xlink:href="#C0_0_a1cc20555f" x="175.753079" y="99.936" style="fill: #00b33c; fill-opacity: 0.7"/>
    </g>
    <g clip-path="url(#p9a6d02133d)">
     <use xlink:href="#C0_0_a1cc20555f" x="280.84955" y="99.936" style="fill: #00b33c; fill-opacity: 0.7"/>
    </g>
    <g clip-path="url(#p9a6d02133d)">
     <use xlink:href="#C0_0_a1cc20555f" x="213.203487" y="59.616" style="fill: #00b33c; fill-opacity: 0.7"/>
    </g>
    <g clip-path="url(#p9a6d02133d)">
     <use xlink:href="#C0_0_a1cc20555f" x="239.097407" y="19.296" style="fill: #00b33c; fill-opacity: 0.7"/>
    </g>
    <g clip-path="url(#p9a6d02133d)">
     <use xlink:href="#C0_0_a1cc20555f" x="380.3816" y="140.256" style="fill: #00b33c; fill-opacity: 0.7"/>
    </g>
    <g clip-path="url(#p9a6d02133d)">
     <use xlink:href="#C0_0_a1cc20555f" x="228.639128" y="19.296" style="fill: #00b33c; fill-opacity: 0.7"/>
    </g>
    <g clip-path="url(#p9a6d02133d)">
     <use xlink:href="#C0_0_a1cc20555f" x="318.046915" y="59.616" style="fill: #00b33c; fill-opacity: 0.7"/>
    </g>
    <g clip-path="url(#p9a6d02133d)">
     <use xlink:href="#C0_0_a1cc20555f" x="368.994651" y="220.896" style="fill: #00b33c; fill-opacity: 0.7"/>
    </g>
    <g clip-path="url(#p9a6d02133d)">
     <use xlink:href="#C0_0_a1cc20555f" x="321.422512" y="99.936" style="fill: #00b33c; fill-opacity: 0.7"/>
    </g>
    <g clip-path="url(#p9a6d02133d)">
     <use xlink:href="#C0_0_a1cc20555f" x="256.051308" y="99.936" style="fill: #00b33c; fill-opacity: 0.7"/>
    </g>
    <g clip-path="url(#p9a6d02133d)">
     <use xlink:href="#C0_0_a1cc20555f" x="358.450337" y="99.936" style="fill: #00b33c; fill-opacity: 0.7"/>
    </g>
    <g clip-path="url(#p9a6d02133d)">
     <use xlink:href="#C0_0_a1cc20555f" x="278.152109" y="19.296" style="fill: #00b33c; fill-opacity: 0.7"/>
    </g>
    <g clip-path="url(#p9a6d02133d)">
     <use xlink:href="#C0_0_a1cc20555f" x="252.425197" y="261.216" style="fill: #00b33c; fill-opacity: 0.7"/>
    </g>
    <g clip-path="url(#p9a6d02133d)">
     <use xlink:href="#C0_0_a1cc20555f" x="244.917403" y="140.256" style="fill: #00b33c; fill-opacity: 0.7"/>
    </g>
    <g clip-path="url(#p9a6d02133d)">
     <use xlink:href="#C0_0_a1cc20555f" x="264.824319" y="99.936" style="fill: #00b33c; fill-opacity: 0.7"/>
    </g>
    <g clip-path="url(#p9a6d02133d)">
     <use xlink:href="#C0_0_a1cc20555f" x="162.931376" y="140.256" style="fill: #00b33c; fill-opacity: 0.7"/>
    </g>
    <g clip-path="url(#p9a6d02133d)">
     <use xlink:href="#C0_0_a1cc20555f" x="247.111288" y="140.256" style="fill: #00b33c; fill-opacity: 0.7"/>
    </g>
    <g clip-path="url(#p9a6d02133d)">
     <use xlink:href="#C0_0_a1cc20555f" x="273.933877" y="99.936" style="fill: #00b33c; fill-opacity: 0.7"/>
    </g>
    <g clip-path="url(#p9a6d02133d)">
     <use xlink:href="#C0_0_a1cc20555f" x="154.666982" y="59.616" style="fill: #00b33c; fill-opacity: 0.7"/>
    </g>
    <g clip-path="url(#p9a6d02133d)">
     <use xlink:href="#C0_0_a1cc20555f" x="226.108695" y="180.576" style="fill: #00b33c; fill-opacity: 0.7"/>
    </g>
    <g clip-path="url(#p9a6d02133d)">
     <use xlink:href="#C0_0_a1cc20555f" x="326.650387" y="140.256" style="fill: #00b33c; fill-opacity: 0.7"/>
    </g>
    <g clip-path="url(#p9a6d02133d)">
     <use xlink:href="#C0_0_a1cc20555f" x="229.314753" y="99.936" style="fill: #00b33c; fill-opacity: 0.7"/>
    </g>
    <g clip-path="url(#p9a6d02133d)">
     <use xlink:href="#C0_0_a1cc20555f" x="298.142529" y="19.296" style="fill: #00b33c; fill-opacity: 0.7"/>
    </g>
    <g clip-path="url(#p9a6d02133d)">
     <use xlink:href="#C0_0_a1cc20555f" x="375.910325" y="140.256" style="fill: #00b33c; fill-opacity: 0.7"/>
    </g>
    <g clip-path="url(#p9a6d02133d)">
     <use xlink:href="#C0_0_a1cc20555f" x="105.576583" y="19.296" style="fill: #00b33c; fill-opacity: 0.7"/>
    </g>
    <g clip-path="url(#p9a6d02133d)">
     <use xlink:href="#C0_0_a1cc20555f" x="264.234728" y="59.616" style="fill: #00b33c; fill-opacity: 0.7"/>
    </g>
    <g clip-path="url(#p9a6d02133d)">
     <use xlink:href="#C0_0_a1cc20555f" x="255.208674" y="140.256" style="fill: #00b33c; fill-opacity: 0.7"/>
    </g>
    <g clip-path="url(#p9a6d02133d)">
     <use xlink:href="#C0_0_a1cc20555f" x="288.187806" y="180.576" style="fill: #00b33c; fill-opacity: 0.7"/>
    </g>
    <g clip-path="url(#p9a6d02133d)">
     <use xlink:href="#C0_0_a1cc20555f" x="82.716652" y="59.616" style="fill: #00b33c; fill-opacity: 0.7"/>
    </g>
    <g clip-path="url(#p9a6d02133d)">
     <use xlink:href="#C0_0_a1cc20555f" x="270.221732" y="140.256" style="fill: #00b33c; fill-opacity: 0.7"/>
    </g>
    <g clip-path="url(#p9a6d02133d)">
     <use xlink:href="#C0_0_a1cc20555f" x="275.70518" y="140.256" style="fill: #00b33c; fill-opacity: 0.7"/>
    </g>
    <g clip-path="url(#p9a6d02133d)">
     <use xlink:href="#C0_0_a1cc20555f" x="270.307767" y="180.576" style="fill: #00b33c; fill-opacity: 0.7"/>
    </g>
    <g clip-path="url(#p9a6d02133d)">
     <use xlink:href="#C0_0_a1cc20555f" x="160.653986" y="19.296" style="fill: #00b33c; fill-opacity: 0.7"/>
    </g>
    <g clip-path="url(#p9a6d02133d)">
     <use xlink:href="#C0_0_a1cc20555f" x="306.746001" y="140.256" style="fill: #00b33c; fill-opacity: 0.7"/>
    </g>
    <g clip-path="url(#p9a6d02133d)">
     <use xlink:href="#C0_0_a1cc20555f" x="197.178255" y="19.296" style="fill: #00b33c; fill-opacity: 0.7"/>
    </g>
    <g clip-path="url(#p9a6d02133d)">
     <use xlink:href="#C0_0_a1cc20555f" x="315.09643" y="19.296" style="fill: #00b33c; fill-opacity: 0.7"/>
    </g>
    <g clip-path="url(#p9a6d02133d)">
     <use xlink:href="#C0_0_a1cc20555f" x="214.638242" y="140.256" style="fill: #00b33c; fill-opacity: 0.7"/>
    </g>
    <g clip-path="url(#p9a6d02133d)">
     <use xlink:href="#C0_0_a1cc20555f" x="230.410431" y="261.216" style="fill: #00b33c; fill-opacity: 0.7"/>
    </g>
    <g clip-path="url(#p9a6d02133d)">
     <use xlink:href="#C0_0_a1cc20555f" x="208.31216" y="19.296" style="fill: #00b33c; fill-opacity: 0.7"/>
    </g>
    <g clip-path="url(#p9a6d02133d)">
     <use xlink:href="#C0_0_a1cc20555f" x="234.20608" y="59.616" style="fill: #00b33c; fill-opacity: 0.7"/>
    </g>
    <g clip-path="url(#p9a6d02133d)">
     <use xlink:href="#C0_0_a1cc20555f" x="277.729527" y="180.576" style="fill: #00b33c; fill-opacity: 0.7"/>
    </g>
    <g clip-path="url(#p9a6d02133d)">
     <use xlink:href="#C0_0_a1cc20555f" x="304.721655" y="140.256" style="fill: #00b33c; fill-opacity: 0.7"/>
    </g>
    <g clip-path="url(#p9a6d02133d)">
     <use xlink:href="#C0_0_a1cc20555f" x="318.046915" y="59.616" style="fill: #00b33c; fill-opacity: 0.7"/>
    </g>
    <g clip-path="url(#p9a6d02133d)">
     <use xlink:href="#C0_0_a1cc20555f" x="280.006916" y="59.616" style="fill: #00b33c; fill-opacity: 0.7"/>
    </g>
    <g clip-path="url(#p9a6d02133d)">
     <use xlink:href="#C0_0_a1cc20555f" x="277.899066" y="59.616" style="fill: #00b33c; fill-opacity: 0.7"/>
    </g>
    <g clip-path="url(#p9a6d02133d)">
     <use xlink:href="#C0_0_a1cc20555f" x="247.194792" y="99.936" style="fill: #00b33c; fill-opacity: 0.7"/>
    </g>
    <g clip-path="url(#p9a6d02133d)">
     <use xlink:href="#C0_0_a1cc20555f" x="307.588635" y="220.896" style="fill: #00b33c; fill-opacity: 0.7"/>
    </g>
    <g clip-path="url(#p9a6d02133d)">
     <use xlink:href="#C0_0_a1cc20555f" x="333.821634" y="140.256" style="fill: #00b33c; fill-opacity: 0.7"/>
    </g>
    <g clip-path="url(#p9a6d02133d)">
     <use xlink:href="#C0_0_a1cc20555f" x="143.02699" y="19.296" style="fill: #00b33c; fill-opacity: 0.7"/>
    </g>
    <g clip-path="url(#p9a6d02133d)">
     <use xlink:href="#C0_0_a1cc20555f" x="154.07486" y="99.936" style="fill: #00b33c; fill-opacity: 0.7"/>
    </g>
    <g clip-path="url(#p9a6d02133d)">
     <use xlink:href="#C0_0_a1cc20555f" x="306.323419" y="99.936" style="fill: #00b33c; fill-opacity: 0.7"/>
    </g>
    <g clip-path="url(#p9a6d02133d)">
     <use xlink:href="#C0_0_a1cc20555f" x="326.397343" y="140.256" style="fill: #00b33c; fill-opacity: 0.7"/>
    </g>
    <g clip-path="url(#p9a6d02133d)">
     <use xlink:href="#C0_0_a1cc20555f" x="260.186035" y="140.256" style="fill: #00b33c; fill-opacity: 0.7"/>
    </g>
    <g clip-path="url(#p9a6d02133d)">
     <use xlink:href="#C0_0_a1cc20555f" x="207.466995" y="140.256" style="fill: #00b33c; fill-opacity: 0.7"/>
    </g>
    <g clip-path="url(#p9a6d02133d)">
     <use xlink:href="#C0_0_a1cc20555f" x="265.499944" y="180.576" style="fill: #00b33c; fill-opacity: 0.7"/>
    </g>
    <g clip-path="url(#p9a6d02133d)">
     <use xlink:href="#C0_0_a1cc20555f" x="275.115589" y="180.576" style="fill: #00b33c; fill-opacity: 0.7"/>
    </g>
    <g clip-path="url(#p9a6d02133d)">
     <use xlink:href="#C0_0_a1cc20555f" x="164.366131" y="99.936" style="fill: #00b33c; fill-opacity: 0.7"/>
    </g>
    <g clip-path="url(#p9a6d02133d)">
     <use xlink:href="#C0_0_a1cc20555f" x="289.286014" y="59.616" style="fill: #00b33c; fill-opacity: 0.7"/>
    </g>
    <g clip-path="url(#p9a6d02133d)">
     <use xlink:href="#C0_0_a1cc20555f" x="364.100794" y="180.576" style="fill: #00b33c; fill-opacity: 0.7"/>
    </g>
    <g clip-path="url(#p9a6d02133d)">
     <use xlink:href="#C0_0_a1cc20555f" x="130.121782" y="99.936" style="fill: #00b33c; fill-opacity: 0.7"/>
    </g>
    <g clip-path="url(#p9a6d02133d)">
     <use xlink:href="#C0_0_a1cc20555f" x="201.733034" y="99.936" style="fill: #00b33c; fill-opacity: 0.7"/>
    </g>
    <g clip-path="url(#p9a6d02133d)">
     <use xlink:href="#C0_0_a1cc20555f" x="355.750365" y="220.896" style="fill: #00b33c; fill-opacity: 0.7"/>
    </g>
    <g clip-path="url(#p9a6d02133d)">
     <use xlink:href="#C0_0_a1cc20555f" x="239.266946" y="180.576" style="fill: #00b33c; fill-opacity: 0.7"/>
    </g>
    <g clip-path="url(#p9a6d02133d)">
     <use xlink:href="#C0_0_a1cc20555f" x="122.697492" y="140.256" style="fill: #00b33c; fill-opacity: 0.7"/>
    </g>
    <g clip-path="url(#p9a6d02133d)">
     <use xlink:href="#C0_0_a1cc20555f" x="230.663474" y="99.936" style="fill: #00b33c; fill-opacity: 0.7"/>
    </g>
    <g clip-path="url(#p9a6d02133d)">
     <use xlink:href="#C0_0_a1cc20555f" x="126.83222" y="99.936" style="fill: #00b33c; fill-opacity: 0.7"/>
    </g>
    <g clip-path="url(#p9a6d02133d)">
     <use xlink:href="#C0_0_a1cc20555f" x="242.809552" y="140.256" style="fill: #00b33c; fill-opacity: 0.7"/>
    </g>
    <g clip-path="url(#p9a6d02133d)">
     <use xlink:href="#C0_0_a1cc20555f" x="244.158273" y="180.576" style="fill: #00b33c; fill-opacity: 0.7"/>
    </g>
    <g clip-path="url(#p9a6d02133d)">
     <use xlink:href="#C0_0_a1cc20555f" x="314.251265" y="19.296" style="fill: #00b33c; fill-opacity: 0.7"/>
    </g>
    <g clip-path="url(#p9a6d02133d)">
     <use xlink:href="#C0_0_a1cc20555f" x="364.186829" y="140.256" style="fill: #00b33c; fill-opacity: 0.7"/>
    </g>
    <g clip-path="url(#p9a6d02133d)">
     <use xlink:href="#C0_0_a1cc20555f" x="253.184327" y="180.576" style="fill: #00b33c; fill-opacity: 0.7"/>
    </g>
    <g clip-path="url(#p9a6d02133d)">
     <use xlink:href="#C0_0_a1cc20555f" x="331.797287" y="180.576" style="fill: #00b33c; fill-opacity: 0.7"/>
    </g>
    <g clip-path="url(#p9a6d02133d)">
     <use xlink:href="#C0_0_a1cc20555f" x="334.833807" y="19.296" style="fill: #00b33c; fill-opacity: 0.7"/>
    </g>
    <g clip-path="url(#p9a6d02133d)">
     <use xlink:href="#C0_0_a1cc20555f" x="206.707866" y="180.576" style="fill: #00b33c; fill-opacity: 0.7"/>
    </g>
    <g clip-path="url(#p9a6d02133d)">
     <use xlink:href="#C0_0_a1cc20555f" x="149.606116" y="99.936" style="fill: #00b33c; fill-opacity: 0.7"/>
    </g>
    <g clip-path="url(#p9a6d02133d)">
     <use xlink:href="#C0_0_a1cc20555f" x="235.218253" y="220.896" style="fill: #00b33c; fill-opacity: 0.7"/>
    </g>
    <g clip-path="url(#p9a6d02133d)">
     <use xlink:href="#C0_0_a1cc20555f" x="187.646114" y="99.936" style="fill: #00b33c; fill-opacity: 0.7"/>
    </g>
    <g clip-path="url(#p9a6d02133d)">
     <use xlink:href="#C0_0_a1cc20555f" x="177.777426" y="99.936" style="fill: #00b33c; fill-opacity: 0.7"/>
    </g>
    <g clip-path="url(#p9a6d02133d)">
     <use xlink:href="#C0_0_a1cc20555f" x="229.145214" y="99.936" style="fill: #00b33c; fill-opacity: 0.7"/>
    </g>
    <g clip-path="url(#p9a6d02133d)">
     <use xlink:href="#C0_0_a1cc20555f" x="229.651301" y="59.616" style="fill: #00b33c; fill-opacity: 0.7"/>
    </g>
    <g clip-path="url(#p9a6d02133d)">
     <use xlink:href="#C0_0_a1cc20555f" x="235.048714" y="99.936" style="fill: #00b33c; fill-opacity: 0.7"/>
    </g>
    <g clip-path="url(#p9a6d02133d)">
     <use xlink:href="#C0_0_a1cc20555f" x="274.103416" y="140.256" style="fill: #00b33c; fill-opacity: 0.7"/>
    </g>
    <g clip-path="url(#p9a6d02133d)">
     <use xlink:href="#C0_0_a1cc20555f" x="256.726933" y="220.896" style="fill: #00b33c; fill-opacity: 0.7"/>
    </g>
    <g clip-path="url(#p9a6d02133d)">
     <use xlink:href="#C0_0_a1cc20555f" x="346.89385" y="180.576" style="fill: #00b33c; fill-opacity: 0.7"/>
    </g>
    <g clip-path="url(#p9a6d02133d)">
     <use xlink:href="#C0_0_a1cc20555f" x="207.720039" y="59.616" style="fill: #00b33c; fill-opacity: 0.7"/>
    </g>
    <g clip-path="url(#p9a6d02133d)">
     <use xlink:href="#C0_0_a1cc20555f" x="219.446065" y="220.896" style="fill: #00b33c; fill-opacity: 0.7"/>
    </g>
    <g clip-path="url(#p9a6d02133d)">
     <use xlink:href="#C0_0_a1cc20555f" x="360.22164" y="180.576" style="fill: #00b33c; fill-opacity: 0.7"/>
    </g>
    <g clip-path="url(#p9a6d02133d)">
     <use xlink:href="#C0_0_a1cc20555f" x="287.681719" y="19.296" style="fill: #00b33c; fill-opacity: 0.7"/>
    </g>
    <g clip-path="url(#p9a6d02133d)">
     <use xlink:href="#C0_0_a1cc20555f" x="279.584334" y="19.296" style="fill: #00b33c; fill-opacity: 0.7"/>
    </g>
    <g clip-path="url(#p9a6d02133d)">
     <use xlink:href="#C0_0_a1cc20555f" x="261.112174" y="99.936" style="fill: #00b33c; fill-opacity: 0.7"/>
    </g>
    <g clip-path="url(#p9a6d02133d)">
     <use xlink:href="#C0_0_a1cc20555f" x="298.901659" y="180.576" style="fill: #00b33c; fill-opacity: 0.7"/>
    </g>
    <g clip-path="url(#p9a6d02133d)">
     <use xlink:href="#C0_0_a1cc20555f" x="367.223348" y="99.936" style="fill: #00b33c; fill-opacity: 0.7"/>
    </g>
    <g clip-path="url(#p9a6d02133d)">
     <use xlink:href="#C0_0_a1cc20555f" x="154.327904" y="140.256" style="fill: #00b33c; fill-opacity: 0.7"/>
    </g>
    <g clip-path="url(#p9a6d02133d)">
     <use xlink:href="#C0_0_a1cc20555f" x="215.903459" y="180.576" style="fill: #00b33c; fill-opacity: 0.7"/>
    </g>
    <g clip-path="url(#p9a6d02133d)">
     <use xlink:href="#C0_0_a1cc20555f" x="190.346086" y="59.616" style="fill: #00b33c; fill-opacity: 0.7"/>
    </g>
    <g clip-path="url(#p9a6d02133d)">
     <use xlink:href="#C0_0_a1cc20555f" x="387.297273" y="180.576" style="fill: #00b33c; fill-opacity: 0.7"/>
    </g>
    <g clip-path="url(#p9a6d02133d)">
     <use xlink:href="#C0_0_a1cc20555f" x="355.750365" y="180.576" style="fill: #00b33c; fill-opacity: 0.7"/>
    </g>
    <g clip-path="url(#p9a6d02133d)">
     <use xlink:href="#C0_0_a1cc20555f" x="311.467789" y="180.576" style="fill: #00b33c; fill-opacity: 0.7"/>
    </g>
    <g clip-path="url(#p9a6d02133d)">
     <use xlink:href="#C0_0_a1cc20555f" x="104.478375" y="99.936" style="fill: #00b33c; fill-opacity: 0.7"/>
    </g>
    <g clip-path="url(#p9a6d02133d)">
     <use xlink:href="#C0_0_a1cc20555f" x="367.053809" y="220.896" style="fill: #00b33c; fill-opacity: 0.7"/>
    </g>
    <g clip-path="url(#p9a6d02133d)">
     <use xlink:href="#C0_0_a1cc20555f" x="283.296479" y="99.936" style="fill: #00b33c; fill-opacity: 0.7"/>
    </g>
    <g clip-path="url(#p9a6d02133d)">
     <use xlink:href="#C0_0_a1cc20555f" x="253.943457" y="99.936" style="fill: #00b33c; fill-opacity: 0.7"/>
    </g>
    <g clip-path="url(#p9a6d02133d)">
     <use xlink:href="#C0_0_a1cc20555f" x="378.946844" y="59.616" style="fill: #00b33c; fill-opacity: 0.7"/>
    </g>
    <g clip-path="url(#p9a6d02133d)">
     <use xlink:href="#C0_0_a1cc20555f" x="223.325219" y="180.576" style="fill: #00b33c; fill-opacity: 0.7"/>
    </g>
    <g clip-path="url(#p9a6d02133d)">
     <use xlink:href="#C0_0_a1cc20555f" x="258.75128" y="99.936" style="fill: #00b33c; fill-opacity: 0.7"/>
    </g>
    <g clip-path="url(#p9a6d02133d)">
     <use xlink:href="#C0_0_a1cc20555f" x="261.451252" y="140.256" style="fill: #00b33c; fill-opacity: 0.7"/>
    </g>
    <g clip-path="url(#p9a6d02133d)">
     <use xlink:href="#C0_0_a1cc20555f" x="242.219961" y="180.576" style="fill: #00b33c; fill-opacity: 0.7"/>
    </g>
    <g clip-path="url(#p9a6d02133d)">
     <use xlink:href="#C0_0_a1cc20555f" x="248.882591" y="180.576" style="fill: #00b33c; fill-opacity: 0.7"/>
    </g>
    <g clip-path="url(#p9a6d02133d)">
     <use xlink:href="#C0_0_a1cc20555f" x="222.060002" y="180.576" style="fill: #00b33c; fill-opacity: 0.7"/>
    </g>
    <g clip-path="url(#p9a6d02133d)">
     <use xlink:href="#C0_0_a1cc20555f" x="147.665274" y="99.936" style="fill: #00b33c; fill-opacity: 0.7"/>
    </g>
    <g clip-path="url(#p9a6d02133d)">
     <use xlink:href="#C0_0_a1cc20555f" x="62.642727" y="59.616" style="fill: #00b33c; fill-opacity: 0.7"/>
    </g>
    <g clip-path="url(#p9a6d02133d)">
     <use xlink:href="#C0_0_a1cc20555f" x="205.781727" y="59.616" style="fill: #00b33c; fill-opacity: 0.7"/>
    </g>
   </g>
   <g id="matplotlib.axis_1">
    <g id="xtick_1">
     <g id="line2d_1">
      <defs>
       <path id="m425e2e6c8c" d="M 0 0 
L 0 3.5 
" style="stroke: #000000; stroke-width: 0.8"/>
      </defs>
      <g>
       <use xlink:href="#m425e2e6c8c" x="96.550529" y="273.312" style="stroke: #000000; stroke-width: 0.8"/>
      </g>
     </g>
     <g id="text_1">
      <!-- 72 -->
      <g transform="translate(90.188029 287.910437)scale(0.1 -0.1)">
       <defs>
        <path id="DejaVuSerif-37" d="M 3609 4347 
L 1784 0 
L 1319 0 
L 3059 4153 
L 903 4153 
L 903 3578 
L 538 3578 
L 538 4666 
L 3609 4666 
L 3609 4347 
z
" transform="scale(0.015625)"/>
        <path id="DejaVuSerif-32" d="M 819 3553 
L 469 3553 
L 469 4384 
Q 803 4563 1142 4656 
Q 1481 4750 1806 4750 
Q 2534 4750 2956 4397 
Q 3378 4044 3378 3438 
Q 3378 2753 2422 1800 
Q 2347 1728 2309 1691 
L 1131 513 
L 3078 513 
L 3078 1088 
L 3444 1088 
L 3444 0 
L 434 0 
L 434 341 
L 1850 1753 
Q 2319 2222 2519 2614 
Q 2719 3006 2719 3438 
Q 2719 3909 2473 4175 
Q 2228 4441 1797 4441 
Q 1350 4441 1106 4219 
Q 863 3997 819 3553 
z
" transform="scale(0.015625)"/>
       </defs>
       <use xlink:href="#DejaVuSerif-37"/>
       <use xlink:href="#DejaVuSerif-32" x="63.623047"/>
      </g>
     </g>
    </g>
    <g id="xtick_2">
     <g id="line2d_2">
      <g>
       <use xlink:href="#m425e2e6c8c" x="147.159187" y="273.312" style="stroke: #000000; stroke-width: 0.8"/>
      </g>
     </g>
     <g id="text_2">
      <!-- 74 -->
      <g transform="translate(140.796687 287.910437)scale(0.1 -0.1)">
       <defs>
        <path id="DejaVuSerif-34" d="M 2234 1581 
L 2234 4063 
L 641 1581 
L 2234 1581 
z
M 3609 0 
L 1484 0 
L 1484 331 
L 2234 331 
L 2234 1247 
L 197 1247 
L 197 1588 
L 2241 4750 
L 2859 4750 
L 2859 1581 
L 3750 1581 
L 3750 1247 
L 2859 1247 
L 2859 331 
L 3609 331 
L 3609 0 
z
" transform="scale(0.015625)"/>
       </defs>
       <use xlink:href="#DejaVuSerif-37"/>
       <use xlink:href="#DejaVuSerif-34" x="63.623047"/>
      </g>
     </g>
    </g>
    <g id="xtick_3">
     <g id="line2d_3">
      <g>
       <use xlink:href="#m425e2e6c8c" x="197.767846" y="273.312" style="stroke: #000000; stroke-width: 0.8"/>
      </g>
     </g>
     <g id="text_3">
      <!-- 76 -->
      <g transform="translate(191.405346 287.910437)scale(0.1 -0.1)">
       <defs>
        <path id="DejaVuSerif-36" d="M 2094 219 
Q 2534 219 2771 542 
Q 3009 866 3009 1472 
Q 3009 2078 2771 2401 
Q 2534 2725 2094 2725 
Q 1647 2725 1412 2412 
Q 1178 2100 1178 1509 
Q 1178 888 1415 553 
Q 1653 219 2094 219 
z
M 1075 2569 
Q 1288 2803 1556 2918 
Q 1825 3034 2163 3034 
Q 2859 3034 3264 2615 
Q 3669 2197 3669 1472 
Q 3669 763 3233 336 
Q 2797 -91 2069 -91 
Q 1278 -91 853 498 
Q 428 1088 428 2181 
Q 428 3406 931 4078 
Q 1434 4750 2350 4750 
Q 2597 4750 2869 4703 
Q 3141 4656 3425 4563 
L 3425 3794 
L 3072 3794 
Q 3034 4109 2831 4275 
Q 2628 4441 2284 4441 
Q 1678 4441 1381 3981 
Q 1084 3522 1075 2569 
z
" transform="scale(0.015625)"/>
       </defs>
       <use xlink:href="#DejaVuSerif-37"/>
       <use xlink:href="#DejaVuSerif-36" x="63.623047"/>
      </g>
     </g>
    </g>
    <g id="xtick_4">
     <g id="line2d_4">
      <g>
       <use xlink:href="#m425e2e6c8c" x="248.376505" y="273.312" style="stroke: #000000; stroke-width: 0.8"/>
      </g>
     </g>
     <g id="text_4">
      <!-- 78 -->
      <g transform="translate(242.014005 287.910437)scale(0.1 -0.1)">
       <defs>
        <path id="DejaVuSerif-38" d="M 2981 1275 
Q 2981 1775 2732 2051 
Q 2484 2328 2034 2328 
Q 1584 2328 1336 2051 
Q 1088 1775 1088 1275 
Q 1088 772 1336 495 
Q 1584 219 2034 219 
Q 2484 219 2732 495 
Q 2981 772 2981 1275 
z
M 2853 3541 
Q 2853 3966 2637 4203 
Q 2422 4441 2034 4441 
Q 1650 4441 1433 4203 
Q 1216 3966 1216 3541 
Q 1216 3113 1433 2875 
Q 1650 2638 2034 2638 
Q 2422 2638 2637 2875 
Q 2853 3113 2853 3541 
z
M 2516 2484 
Q 3047 2413 3344 2092 
Q 3641 1772 3641 1275 
Q 3641 619 3225 264 
Q 2809 -91 2034 -91 
Q 1263 -91 845 264 
Q 428 619 428 1275 
Q 428 1772 725 2092 
Q 1022 2413 1556 2484 
Q 1084 2569 832 2842 
Q 581 3116 581 3541 
Q 581 4103 968 4426 
Q 1356 4750 2034 4750 
Q 2713 4750 3100 4426 
Q 3488 4103 3488 3541 
Q 3488 3116 3236 2842 
Q 2984 2569 2516 2484 
z
" transform="scale(0.015625)"/>
       </defs>
       <use xlink:href="#DejaVuSerif-37"/>
       <use xlink:href="#DejaVuSerif-38" x="63.623047"/>
      </g>
     </g>
    </g>
    <g id="xtick_5">
     <g id="line2d_5">
      <g>
       <use xlink:href="#m425e2e6c8c" x="298.985163" y="273.312" style="stroke: #000000; stroke-width: 0.8"/>
      </g>
     </g>
     <g id="text_5">
      <!-- 80 -->
      <g transform="translate(292.622663 287.910437)scale(0.1 -0.1)">
       <defs>
        <path id="DejaVuSerif-30" d="M 2034 219 
Q 2513 219 2750 744 
Q 2988 1269 2988 2328 
Q 2988 3391 2750 3916 
Q 2513 4441 2034 4441 
Q 1556 4441 1318 3916 
Q 1081 3391 1081 2328 
Q 1081 1269 1318 744 
Q 1556 219 2034 219 
z
M 2034 -91 
Q 1275 -91 848 546 
Q 422 1184 422 2328 
Q 422 3475 848 4112 
Q 1275 4750 2034 4750 
Q 2797 4750 3222 4112 
Q 3647 3475 3647 2328 
Q 3647 1184 3222 546 
Q 2797 -91 2034 -91 
z
" transform="scale(0.015625)"/>
       </defs>
       <use xlink:href="#DejaVuSerif-38"/>
       <use xlink:href="#DejaVuSerif-30" x="63.623047"/>
      </g>
     </g>
    </g>
    <g id="xtick_6">
     <g id="line2d_6">
      <g>
       <use xlink:href="#m425e2e6c8c" x="349.593822" y="273.312" style="stroke: #000000; stroke-width: 0.8"/>
      </g>
     </g>
     <g id="text_6">
      <!-- 82 -->
      <g transform="translate(343.231322 287.910437)scale(0.1 -0.1)">
       <use xlink:href="#DejaVuSerif-38"/>
       <use xlink:href="#DejaVuSerif-32" x="63.623047"/>
      </g>
     </g>
    </g>
    <g id="xtick_7">
     <g id="line2d_7">
      <g>
       <use xlink:href="#m425e2e6c8c" x="400.202481" y="273.312" style="stroke: #000000; stroke-width: 0.8"/>
      </g>
     </g>
     <g id="text_7">
      <!-- 84 -->
      <g transform="translate(393.839981 287.910437)scale(0.1 -0.1)">
       <use xlink:href="#DejaVuSerif-38"/>
       <use xlink:href="#DejaVuSerif-34" x="63.623047"/>
      </g>
     </g>
    </g>
    <g id="text_8">
     <!-- NNS -->
     <g transform="translate(205.49 306.147625)scale(0.16 -0.16)">
      <defs>
       <path id="DejaVuSerif-4e" d="M 313 0 
L 313 331 
L 941 331 
L 941 4331 
L 313 4331 
L 313 4666 
L 1509 4666 
L 4306 984 
L 4306 4331 
L 3681 4331 
L 3681 4666 
L 5319 4666 
L 5319 4331 
L 4691 4331 
L 4691 -91 
L 4313 -91 
L 1325 3841 
L 1325 331 
L 1953 331 
L 1953 0 
L 313 0 
z
" transform="scale(0.015625)"/>
       <path id="DejaVuSerif-53" d="M 594 225 
L 594 1288 
L 953 1284 
Q 969 753 1261 498 
Q 1553 244 2150 244 
Q 2706 244 2998 464 
Q 3291 684 3291 1106 
Q 3291 1444 3114 1625 
Q 2938 1806 2369 1978 
L 1753 2163 
Q 1084 2366 811 2669 
Q 538 2972 538 3500 
Q 538 4094 959 4422 
Q 1381 4750 2144 4750 
Q 2469 4750 2856 4679 
Q 3244 4609 3681 4475 
L 3681 3481 
L 3328 3481 
Q 3275 3975 2998 4195 
Q 2722 4416 2156 4416 
Q 1663 4416 1405 4214 
Q 1147 4013 1147 3628 
Q 1147 3294 1340 3103 
Q 1534 2913 2163 2725 
L 2741 2553 
Q 3375 2363 3645 2067 
Q 3916 1772 3916 1275 
Q 3916 597 3481 253 
Q 3047 -91 2188 -91 
Q 1803 -91 1404 -12 
Q 1006 66 594 225 
z
" transform="scale(0.015625)"/>
      </defs>
      <use xlink:href="#DejaVuSerif-4e"/>
      <use xlink:href="#DejaVuSerif-4e" x="87.5"/>
      <use xlink:href="#DejaVuSerif-53" x="175"/>
     </g>
    </g>
   </g>
   <g id="matplotlib.axis_2">
    <g id="ytick_1">
     <g id="line2d_8">
      <defs>
       <path id="me29a4c1f40" d="M 0 0 
L -3.5 0 
" style="stroke: #000000; stroke-width: 0.8"/>
      </defs>
      <g>
       <use xlink:href="#me29a4c1f40" x="46.41" y="261.216" style="stroke: #000000; stroke-width: 0.8"/>
      </g>
     </g>
     <g id="text_9">
      <!-- 4 -->
      <g transform="translate(33.0475 265.015219)scale(0.1 -0.1)">
       <use xlink:href="#DejaVuSerif-34"/>
      </g>
     </g>
    </g>
    <g id="ytick_2">
     <g id="line2d_9">
      <g>
       <use xlink:href="#me29a4c1f40" x="46.41" y="220.896" style="stroke: #000000; stroke-width: 0.8"/>
      </g>
     </g>
     <g id="text_10">
      <!-- 5 -->
      <g transform="translate(33.0475 224.695219)scale(0.1 -0.1)">
       <defs>
        <path id="DejaVuSerif-35" d="M 3219 4666 
L 3219 4153 
L 1081 4153 
L 1081 2816 
Q 1244 2928 1461 2984 
Q 1678 3041 1947 3041 
Q 2703 3041 3140 2622 
Q 3578 2203 3578 1478 
Q 3578 738 3136 323 
Q 2694 -91 1894 -91 
Q 1572 -91 1234 -12 
Q 897 66 544 225 
L 544 1131 
L 897 1131 
Q 925 688 1179 453 
Q 1434 219 1894 219 
Q 2388 219 2653 544 
Q 2919 869 2919 1478 
Q 2919 2084 2655 2407 
Q 2391 2731 1894 2731 
Q 1613 2731 1398 2631 
Q 1184 2531 1019 2322 
L 750 2322 
L 750 4666 
L 3219 4666 
z
" transform="scale(0.015625)"/>
       </defs>
       <use xlink:href="#DejaVuSerif-35"/>
      </g>
     </g>
    </g>
    <g id="ytick_3">
     <g id="line2d_10">
      <g>
       <use xlink:href="#me29a4c1f40" x="46.41" y="180.576" style="stroke: #000000; stroke-width: 0.8"/>
      </g>
     </g>
     <g id="text_11">
      <!-- 6 -->
      <g transform="translate(33.0475 184.375219)scale(0.1 -0.1)">
       <use xlink:href="#DejaVuSerif-36"/>
      </g>
     </g>
    </g>
    <g id="ytick_4">
     <g id="line2d_11">
      <g>
       <use xlink:href="#me29a4c1f40" x="46.41" y="140.256" style="stroke: #000000; stroke-width: 0.8"/>
      </g>
     </g>
     <g id="text_12">
      <!-- 7 -->
      <g transform="translate(33.0475 144.055219)scale(0.1 -0.1)">
       <use xlink:href="#DejaVuSerif-37"/>
      </g>
     </g>
    </g>
    <g id="ytick_5">
     <g id="line2d_12">
      <g>
       <use xlink:href="#me29a4c1f40" x="46.41" y="99.936" style="stroke: #000000; stroke-width: 0.8"/>
      </g>
     </g>
     <g id="text_13">
      <!-- 8 -->
      <g transform="translate(33.0475 103.735219)scale(0.1 -0.1)">
       <use xlink:href="#DejaVuSerif-38"/>
      </g>
     </g>
    </g>
    <g id="ytick_6">
     <g id="line2d_13">
      <g>
       <use xlink:href="#me29a4c1f40" x="46.41" y="59.616" style="stroke: #000000; stroke-width: 0.8"/>
      </g>
     </g>
     <g id="text_14">
      <!-- 9 -->
      <g transform="translate(33.0475 63.415219)scale(0.1 -0.1)">
       <defs>
        <path id="DejaVuSerif-39" d="M 2994 2091 
Q 2784 1856 2512 1740 
Q 2241 1625 1900 1625 
Q 1206 1625 804 2044 
Q 403 2463 403 3188 
Q 403 3897 839 4323 
Q 1275 4750 2003 4750 
Q 2794 4750 3217 4161 
Q 3641 3572 3641 2478 
Q 3641 1253 3137 581 
Q 2634 -91 1722 -91 
Q 1475 -91 1203 -44 
Q 931 3 647 97 
L 647 872 
L 997 872 
Q 1038 556 1241 387 
Q 1444 219 1784 219 
Q 2391 219 2687 676 
Q 2984 1134 2994 2091 
z
M 1978 4441 
Q 1534 4441 1298 4117 
Q 1063 3794 1063 3188 
Q 1063 2581 1298 2256 
Q 1534 1931 1978 1931 
Q 2422 1931 2658 2245 
Q 2894 2559 2894 3150 
Q 2894 3772 2656 4106 
Q 2419 4441 1978 4441 
z
" transform="scale(0.015625)"/>
       </defs>
       <use xlink:href="#DejaVuSerif-39"/>
      </g>
     </g>
    </g>
    <g id="ytick_7">
     <g id="line2d_14">
      <g>
       <use xlink:href="#me29a4c1f40" x="46.41" y="19.296" style="stroke: #000000; stroke-width: 0.8"/>
      </g>
     </g>
     <g id="text_15">
      <!-- 10 -->
      <g transform="translate(26.685 23.095219)scale(0.1 -0.1)">
       <defs>
        <path id="DejaVuSerif-31" d="M 909 0 
L 909 331 
L 1722 331 
L 1722 4213 
L 781 3603 
L 781 4013 
L 1919 4750 
L 2350 4750 
L 2350 331 
L 3163 331 
L 3163 0 
L 909 0 
z
" transform="scale(0.015625)"/>
       </defs>
       <use xlink:href="#DejaVuSerif-31"/>
       <use xlink:href="#DejaVuSerif-30" x="63.623047"/>
      </g>
     </g>
    </g>
    <g id="text_16">
     <!-- ADOS -->
     <g transform="translate(19.3575 164.486)rotate(-90)scale(0.16 -0.16)">
      <defs>
       <path id="DejaVuSerif-41" d="M 1281 1691 
L 2994 1691 
L 2138 3909 
L 1281 1691 
z
M -38 0 
L -38 331 
L 372 331 
L 2034 4666 
L 2559 4666 
L 4225 331 
L 4684 331 
L 4684 0 
L 2988 0 
L 2988 331 
L 3506 331 
L 3116 1356 
L 1153 1356 
L 763 331 
L 1275 331 
L 1275 0 
L -38 0 
z
" transform="scale(0.015625)"/>
       <path id="DejaVuSerif-44" d="M 1581 331 
L 2163 331 
Q 3072 331 3558 850 
Q 4044 1369 4044 2338 
Q 4044 3306 3559 3818 
Q 3075 4331 2163 4331 
L 1581 4331 
L 1581 331 
z
M 353 0 
L 353 331 
L 947 331 
L 947 4331 
L 353 4331 
L 353 4666 
L 2209 4666 
Q 3416 4666 4089 4050 
Q 4763 3434 4763 2338 
Q 4763 1238 4088 619 
Q 3413 0 2209 0 
L 353 0 
z
" transform="scale(0.015625)"/>
       <path id="DejaVuSerif-4f" d="M 2625 244 
Q 3391 244 3781 770 
Q 4172 1297 4172 2328 
Q 4172 3363 3781 3889 
Q 3391 4416 2625 4416 
Q 1856 4416 1465 3889 
Q 1075 3363 1075 2328 
Q 1075 1297 1465 770 
Q 1856 244 2625 244 
z
M 2625 -91 
Q 2150 -91 1751 65 
Q 1353 222 1050 525 
Q 700 875 529 1319 
Q 359 1763 359 2328 
Q 359 2894 529 3339 
Q 700 3784 1050 4134 
Q 1356 4441 1750 4595 
Q 2144 4750 2625 4750 
Q 3641 4750 4266 4084 
Q 4891 3419 4891 2328 
Q 4891 1769 4719 1320 
Q 4547 872 4197 525 
Q 3891 219 3497 64 
Q 3103 -91 2625 -91 
z
" transform="scale(0.015625)"/>
      </defs>
      <use xlink:href="#DejaVuSerif-41"/>
      <use xlink:href="#DejaVuSerif-44" x="72.216797"/>
      <use xlink:href="#DejaVuSerif-4f" x="152.392578"/>
      <use xlink:href="#DejaVuSerif-53" x="234.375"/>
     </g>
    </g>
   </g>
   <g id="line2d_15">
    <path d="M 201.563495 107.247053 
L 230.57997 113.419111 
L 127.252271 91.440406 
L 316.108603 131.611798 
L 195.996543 106.062913 
L 208.565203 108.736377 
L 254.366039 118.478615 
L 328.085142 134.159313 
L 175.753079 101.756952 
L 280.84955 124.11189 
L 213.203487 109.722981 
L 239.097407 115.230844 
L 380.3816 145.283226 
L 228.639128 113.006276 
L 318.046915 132.024094 
L 368.994651 142.861123 
L 321.422512 132.742113 
L 256.051308 118.837087 
L 358.450337 140.618255 
L 278.152109 123.53812 
L 252.425197 118.065781 
L 244.917403 116.468808 
L 264.824319 120.703183 
L 162.931376 99.029663 
L 247.111288 116.935466 
L 273.933877 122.640866 
L 154.666982 97.271755 
L 226.108695 112.468031 
L 326.650387 133.854128 
L 229.314753 113.149988 
L 298.142529 127.790257 
L 375.910325 144.332147 
L 105.576583 86.829798 
L 264.234728 120.577772 
L 255.208674 118.657851 
L 288.187806 125.672801 
L 82.716652 81.967291 
L 270.221732 121.85126 
L 275.70518 123.017637 
L 270.307767 121.86956 
L 160.653986 98.545243 
L 306.746001 129.620291 
L 197.178255 106.314274 
L 315.09643 131.3965 
L 214.638242 110.028166 
L 230.410431 113.383048 
L 208.31216 108.682553 
L 234.20608 114.190416 
L 277.729527 123.448233 
L 304.721655 129.189695 
L 318.046915 132.024094 
L 280.006916 123.932654 
L 277.899066 123.484296 
L 247.194792 116.953229 
L 307.588635 129.799527 
L 333.821634 135.379515 
L 143.02699 94.795827 
L 154.07486 97.145805 
L 306.323419 129.530404 
L 326.397343 133.800303 
L 260.186035 119.716579 
L 207.466995 108.502779 
L 265.499944 120.846894 
L 275.115589 122.892226 
L 164.366131 99.334848 
L 289.286014 125.906399 
L 364.100794 141.820157 
L 130.121782 92.050776 
L 201.733034 107.283115 
L 355.750365 140.043948 
L 239.266946 115.266906 
L 122.697492 90.471565 
L 230.663474 113.436873 
L 126.83222 91.351057 
L 242.809552 116.02045 
L 244.158273 116.307334 
L 314.251265 131.216726 
L 364.186829 141.838457 
L 253.184327 118.227255 
L 331.797287 134.948919 
L 334.833807 135.594813 
L 206.707866 108.341305 
L 149.606116 96.195264 
L 235.218253 114.405714 
L 187.646114 104.286704 
L 177.777426 102.187548 
L 229.145214 113.113926 
L 229.651301 113.221575 
L 235.048714 114.369652 
L 274.103416 122.676928 
L 256.726933 118.980798 
L 346.89385 138.160089 
L 207.720039 108.556603 
L 219.446065 111.050832 
L 360.22164 140.995027 
L 287.681719 125.565152 
L 279.584334 123.842767 
L 261.112174 119.913577 
L 298.901659 127.951731 
L 367.223348 142.484351 
L 154.327904 97.19963 
L 215.903459 110.297288 
L 190.346086 104.861012 
L 387.297273 146.75425 
L 355.750365 140.043948 
L 311.467789 130.624657 
L 104.478375 86.596199 
L 367.053809 142.448289 
L 283.296479 124.632373 
L 253.943457 118.388728 
L 378.946844 144.978041 
L 223.325219 111.875962 
L 258.75128 119.411394 
L 261.451252 119.985702 
L 242.219961 115.895038 
L 248.882591 117.312238 
L 222.060002 111.606839 
L 147.665274 95.78243 
L 62.642727 77.697391 
L 205.781727 108.144308 
" clip-path="url(#p9a6d02133d)" style="fill: none; stroke: #007326; stroke-width: 2; stroke-linecap: square"/>
   </g>
   <g id="patch_3">
    <path d="M 46.41 273.312 
L 46.41 7.2 
" style="fill: none; stroke: #000000; stroke-width: 0.8; stroke-linejoin: miter; stroke-linecap: square"/>
   </g>
   <g id="patch_4">
    <path d="M 403.53 273.312 
L 403.53 7.2 
" style="fill: none; stroke: #000000; stroke-width: 0.8; stroke-linejoin: miter; stroke-linecap: square"/>
   </g>
   <g id="patch_5">
    <path d="M 46.41 273.312 
L 403.53 273.312 
" style="fill: none; stroke: #000000; stroke-width: 0.8; stroke-linejoin: miter; stroke-linecap: square"/>
   </g>
   <g id="patch_6">
    <path d="M 46.41 7.2 
L 403.53 7.2 
" style="fill: none; stroke: #000000; stroke-width: 0.8; stroke-linejoin: miter; stroke-linecap: square"/>
   </g>
   <g id="text_17">
    <g id="patch_7">
     <path d="M 318.5748 56.296762 
L 390.58605 56.296762 
L 390.58605 11.325637 
L 318.5748 11.325637 
z
" style="fill: #ffffff; opacity: 0.5; stroke: #000000; stroke-linejoin: miter"/>
    </g>
    <!-- r=-0.24 -->
    <g style="fill: #808080" transform="translate(328.5348 30.403762)scale(0.12 -0.12)">
     <defs>
      <path id="DejaVuSerif-72" d="M 3059 3328 
L 3059 2497 
L 2728 2497 
Q 2713 2744 2591 2866 
Q 2469 2988 2234 2988 
Q 1809 2988 1582 2694 
Q 1356 2400 1356 1850 
L 1356 331 
L 2022 331 
L 2022 0 
L 263 0 
L 263 331 
L 781 331 
L 781 2994 
L 231 2994 
L 231 3322 
L 1356 3322 
L 1356 2731 
Q 1525 3078 1790 3245 
Q 2056 3413 2438 3413 
Q 2578 3413 2733 3391 
Q 2888 3369 3059 3328 
z
" transform="scale(0.015625)"/>
      <path id="DejaVuSerif-3d" d="M 678 2894 
L 4684 2894 
L 4684 2394 
L 678 2394 
L 678 2894 
z
M 678 1619 
L 4684 1619 
L 4684 1119 
L 678 1119 
L 678 1619 
z
" transform="scale(0.015625)"/>
      <path id="DejaVuSerif-2d" d="M 281 1959 
L 1881 1959 
L 1881 1472 
L 281 1472 
L 281 1959 
z
" transform="scale(0.015625)"/>
      <path id="DejaVuSerif-2e" d="M 603 325 
Q 603 500 722 622 
Q 841 744 1019 744 
Q 1191 744 1312 622 
Q 1434 500 1434 325 
Q 1434 153 1312 31 
Q 1191 -91 1019 -91 
Q 841 -91 722 29 
Q 603 150 603 325 
z
" transform="scale(0.015625)"/>
     </defs>
     <use xlink:href="#DejaVuSerif-72"/>
     <use xlink:href="#DejaVuSerif-3d" x="47.802734"/>
     <use xlink:href="#DejaVuSerif-2d" x="131.591797"/>
     <use xlink:href="#DejaVuSerif-30" x="165.380859"/>
     <use xlink:href="#DejaVuSerif-2e" x="229.003906"/>
     <use xlink:href="#DejaVuSerif-32" x="260.791016"/>
     <use xlink:href="#DejaVuSerif-34" x="324.414062"/>
    </g>
    <!-- p=0.008 -->
    <g style="fill: #808080" transform="translate(328.5348 43.841137)scale(0.12 -0.12)">
     <defs>
      <path id="DejaVuSerif-70" d="M 1313 1825 
L 1313 1497 
Q 1313 897 1542 583 
Q 1772 269 2209 269 
Q 2650 269 2876 622 
Q 3103 975 3103 1663 
Q 3103 2353 2876 2703 
Q 2650 3053 2209 3053 
Q 1772 3053 1542 2737 
Q 1313 2422 1313 1825 
z
M 738 2988 
L 184 2988 
L 184 3322 
L 1313 3322 
L 1313 2803 
Q 1481 3116 1742 3264 
Q 2003 3413 2388 3413 
Q 3000 3413 3387 2928 
Q 3775 2444 3775 1663 
Q 3775 881 3387 395 
Q 3000 -91 2388 -91 
Q 2003 -91 1742 57 
Q 1481 206 1313 519 
L 1313 -997 
L 1856 -997 
L 1856 -1331 
L 184 -1331 
L 184 -997 
L 738 -997 
L 738 2988 
z
" transform="scale(0.015625)"/>
     </defs>
     <use xlink:href="#DejaVuSerif-70"/>
     <use xlink:href="#DejaVuSerif-3d" x="64.013672"/>
     <use xlink:href="#DejaVuSerif-30" x="147.802734"/>
     <use xlink:href="#DejaVuSerif-2e" x="211.425781"/>
     <use xlink:href="#DejaVuSerif-30" x="243.212891"/>
     <use xlink:href="#DejaVuSerif-30" x="306.835938"/>
     <use xlink:href="#DejaVuSerif-38" x="370.458984"/>
    </g>
   </g>
  </g>
 </g>
 <defs>
  <clipPath id="p9a6d02133d">
   <rect x="46.41" y="7.2" width="357.12" height="266.112"/>
  </clipPath>
 </defs>
</svg>
