<?xml version="1.0" encoding="utf-8" standalone="no"?>
<!DOCTYPE svg PUBLIC "-//W3C//DTD SVG 1.1//EN"
  "http://www.w3.org/Graphics/SVG/1.1/DTD/svg11.dtd">
<svg xmlns:xlink="http://www.w3.org/1999/xlink" width="412.350462pt" height="316.675125pt" viewBox="0 0 412.350462 316.675125" xmlns="http://www.w3.org/2000/svg" version="1.1">
 <metadata>
  <rdf:RDF xmlns:dc="http://purl.org/dc/elements/1.1/" xmlns:cc="http://creativecommons.org/ns#" xmlns:rdf="http://www.w3.org/1999/02/22-rdf-syntax-ns#">
   <cc:Work>
    <dc:type rdf:resource="http://purl.org/dc/dcmitype/StillImage"/>
    <dc:date>2022-11-05T21:14:07.289606</dc:date>
    <dc:format>image/svg+xml</dc:format>
    <dc:creator>
     <cc:Agent>
      <dc:title>Matplotlib v3.5.3, https://matplotlib.org/</dc:title>
     </cc:Agent>
    </dc:creator>
   </cc:Work>
  </rdf:RDF>
 </metadata>
 <defs>
  <style type="text/css">*{stroke-linejoin: round; stroke-linecap: butt}</style>
 </defs>
 <g id="figure_1">
  <g id="patch_1">
   <path d="M 0 316.675125 
L 412.350462 316.675125 
L 412.350462 0 
L 0 0 
z
" style="fill: #ffffff"/>
  </g>
  <g id="axes_1">
   <g id="patch_2">
    <path d="M 46.41 273.312 
L 403.53 273.312 
L 403.53 7.2 
L 46.41 7.2 
z
" style="fill: #ffffff"/>
   </g>
   <g id="PathCollection_1">
    <defs>
     <path id="C0_0_3333b1f7a8" d="M 0 3 
C 0.795609 3 1.55874 2.683901 2.12132 2.12132 
C 2.683901 1.55874 3 0.795609 3 -0 
C 3 -0.795609 2.683901 -1.55874 2.12132 -2.12132 
C 1.55874 -2.683901 0.795609 -3 0 -3 
C -0.795609 -3 -1.55874 -2.683901 -2.12132 -2.12132 
C -2.683901 -1.55874 -3 -0.795609 -3 0 
C -3 0.795609 -2.683901 1.55874 -2.12132 2.12132 
C -1.55874 2.683901 -0.795609 3 0 3 
z
"/>
    </defs>
    <g clip-path="url(#p05c34ec06e)">
     <use xlink:href="#C0_0_3333b1f7a8" x="234.192335" y="180.576" style="fill: #00b33c; fill-opacity: 0.7"/>
    </g>
    <g clip-path="url(#p05c34ec06e)">
     <use xlink:href="#C0_0_3333b1f7a8" x="243.416488" y="140.256" style="fill: #00b33c; fill-opacity: 0.7"/>
    </g>
    <g clip-path="url(#p05c34ec06e)">
     <use xlink:href="#C0_0_3333b1f7a8" x="181.753034" y="140.256" style="fill: #00b33c; fill-opacity: 0.7"/>
    </g>
    <g clip-path="url(#p05c34ec06e)">
     <use xlink:href="#C0_0_3333b1f7a8" x="299.283253" y="19.296" style="fill: #00b33c; fill-opacity: 0.7"/>
    </g>
    <g clip-path="url(#p05c34ec06e)">
     <use xlink:href="#C0_0_3333b1f7a8" x="182.016685" y="19.296" style="fill: #00b33c; fill-opacity: 0.7"/>
    </g>
    <g clip-path="url(#p05c34ec06e)">
     <use xlink:href="#C0_0_3333b1f7a8" x="213.111154" y="19.296" style="fill: #00b33c; fill-opacity: 0.7"/>
    </g>
    <g clip-path="url(#p05c34ec06e)">
     <use xlink:href="#C0_0_3333b1f7a8" x="297.174044" y="180.576" style="fill: #00b33c; fill-opacity: 0.7"/>
    </g>
    <g clip-path="url(#p05c34ec06e)">
     <use xlink:href="#C0_0_3333b1f7a8" x="375.965729" y="140.256" style="fill: #00b33c; fill-opacity: 0.7"/>
    </g>
    <g clip-path="url(#p05c34ec06e)">
     <use xlink:href="#C0_0_3333b1f7a8" x="176.745481" y="99.936" style="fill: #00b33c; fill-opacity: 0.7"/>
    </g>
    <g clip-path="url(#p05c34ec06e)">
     <use xlink:href="#C0_0_3333b1f7a8" x="341.445614" y="99.936" style="fill: #00b33c; fill-opacity: 0.7"/>
    </g>
    <g clip-path="url(#p05c34ec06e)">
     <use xlink:href="#C0_0_3333b1f7a8" x="269.24157" y="59.616" style="fill: #00b33c; fill-opacity: 0.7"/>
    </g>
    <g clip-path="url(#p05c34ec06e)">
     <use xlink:href="#C0_0_3333b1f7a8" x="226.551907" y="19.296" style="fill: #00b33c; fill-opacity: 0.7"/>
    </g>
    <g clip-path="url(#p05c34ec06e)">
     <use xlink:href="#C0_0_3333b1f7a8" x="365.68879" y="140.256" style="fill: #00b33c; fill-opacity: 0.7"/>
    </g>
    <g clip-path="url(#p05c34ec06e)">
     <use xlink:href="#C0_0_3333b1f7a8" x="230.503037" y="19.296" style="fill: #00b33c; fill-opacity: 0.7"/>
    </g>
    <g clip-path="url(#p05c34ec06e)">
     <use xlink:href="#C0_0_3333b1f7a8" x="181.753034" y="59.616" style="fill: #00b33c; fill-opacity: 0.7"/>
    </g>
    <g clip-path="url(#p05c34ec06e)">
     <use xlink:href="#C0_0_3333b1f7a8" x="308.505587" y="220.896" style="fill: #00b33c; fill-opacity: 0.7"/>
    </g>
    <g clip-path="url(#p05c34ec06e)">
     <use xlink:href="#C0_0_3333b1f7a8" x="242.889185" y="99.936" style="fill: #00b33c; fill-opacity: 0.7"/>
    </g>
    <g clip-path="url(#p05c34ec06e)">
     <use xlink:href="#C0_0_3333b1f7a8" x="283.471458" y="99.936" style="fill: #00b33c; fill-opacity: 0.7"/>
    </g>
    <g clip-path="url(#p05c34ec06e)">
     <use xlink:href="#C0_0_3333b1f7a8" x="366.216092" y="99.936" style="fill: #00b33c; fill-opacity: 0.7"/>
    </g>
    <g clip-path="url(#p05c34ec06e)">
     <use xlink:href="#C0_0_3333b1f7a8" x="357.782893" y="19.296" style="fill: #00b33c; fill-opacity: 0.7"/>
    </g>
    <g clip-path="url(#p05c34ec06e)">
     <use xlink:href="#C0_0_3333b1f7a8" x="303.761685" y="261.216" style="fill: #00b33c; fill-opacity: 0.7"/>
    </g>
    <g clip-path="url(#p05c34ec06e)">
     <use xlink:href="#C0_0_3333b1f7a8" x="292.957444" y="140.256" style="fill: #00b33c; fill-opacity: 0.7"/>
    </g>
    <g clip-path="url(#p05c34ec06e)">
     <use xlink:href="#C0_0_3333b1f7a8" x="232.612246" y="99.936" style="fill: #00b33c; fill-opacity: 0.7"/>
    </g>
    <g clip-path="url(#p05c34ec06e)">
     <use xlink:href="#C0_0_3333b1f7a8" x="163.306547" y="140.256" style="fill: #00b33c; fill-opacity: 0.7"/>
    </g>
    <g clip-path="url(#p05c34ec06e)">
     <use xlink:href="#C0_0_3333b1f7a8" x="200.199522" y="140.256" style="fill: #00b33c; fill-opacity: 0.7"/>
    </g>
    <g clip-path="url(#p05c34ec06e)">
     <use xlink:href="#C0_0_3333b1f7a8" x="341.445614" y="99.936" style="fill: #00b33c; fill-opacity: 0.7"/>
    </g>
    <g clip-path="url(#p05c34ec06e)">
     <use xlink:href="#C0_0_3333b1f7a8" x="138.272417" y="59.616" style="fill: #00b33c; fill-opacity: 0.7"/>
    </g>
    <g clip-path="url(#p05c34ec06e)">
     <use xlink:href="#C0_0_3333b1f7a8" x="126.14992" y="180.576" style="fill: #00b33c; fill-opacity: 0.7"/>
    </g>
    <g clip-path="url(#p05c34ec06e)">
     <use xlink:href="#C0_0_3333b1f7a8" x="331.959628" y="140.256" style="fill: #00b33c; fill-opacity: 0.7"/>
    </g>
    <g clip-path="url(#p05c34ec06e)">
     <use xlink:href="#C0_0_3333b1f7a8" x="208.894554" y="99.936" style="fill: #00b33c; fill-opacity: 0.7"/>
    </g>
    <g clip-path="url(#p05c34ec06e)">
     <use xlink:href="#C0_0_3333b1f7a8" x="248.16039" y="19.296" style="fill: #00b33c; fill-opacity: 0.7"/>
    </g>
    <g clip-path="url(#p05c34ec06e)">
     <use xlink:href="#C0_0_3333b1f7a8" x="354.884548" y="140.256" style="fill: #00b33c; fill-opacity: 0.7"/>
    </g>
    <g clip-path="url(#p05c34ec06e)">
     <use xlink:href="#C0_0_3333b1f7a8" x="131.948427" y="19.296" style="fill: #00b33c; fill-opacity: 0.7"/>
    </g>
    <g clip-path="url(#p05c34ec06e)">
     <use xlink:href="#C0_0_3333b1f7a8" x="228.131995" y="59.616" style="fill: #00b33c; fill-opacity: 0.7"/>
    </g>
    <g clip-path="url(#p05c34ec06e)">
     <use xlink:href="#C0_0_3333b1f7a8" x="303.498034" y="140.256" style="fill: #00b33c; fill-opacity: 0.7"/>
    </g>
    <g clip-path="url(#p05c34ec06e)">
     <use xlink:href="#C0_0_3333b1f7a8" x="213.902107" y="180.576" style="fill: #00b33c; fill-opacity: 0.7"/>
    </g>
    <g clip-path="url(#p05c34ec06e)">
     <use xlink:href="#C0_0_3333b1f7a8" x="120.616883" y="59.616" style="fill: #00b33c; fill-opacity: 0.7"/>
    </g>
    <g clip-path="url(#p05c34ec06e)">
     <use xlink:href="#C0_0_3333b1f7a8" x="207.841768" y="140.256" style="fill: #00b33c; fill-opacity: 0.7"/>
    </g>
    <g clip-path="url(#p05c34ec06e)">
     <use xlink:href="#C0_0_3333b1f7a8" x="236.828846" y="140.256" style="fill: #00b33c; fill-opacity: 0.7"/>
    </g>
    <g clip-path="url(#p05c34ec06e)">
     <use xlink:href="#C0_0_3333b1f7a8" x="284.789714" y="180.576" style="fill: #00b33c; fill-opacity: 0.7"/>
    </g>
    <g clip-path="url(#p05c34ec06e)">
     <use xlink:href="#C0_0_3333b1f7a8" x="138.536068" y="19.296" style="fill: #00b33c; fill-opacity: 0.7"/>
    </g>
    <g clip-path="url(#p05c34ec06e)">
     <use xlink:href="#C0_0_3333b1f7a8" x="219.173312" y="140.256" style="fill: #00b33c; fill-opacity: 0.7"/>
    </g>
    <g clip-path="url(#p05c34ec06e)">
     <use xlink:href="#C0_0_3333b1f7a8" x="204.679773" y="19.296" style="fill: #00b33c; fill-opacity: 0.7"/>
    </g>
    <g clip-path="url(#p05c34ec06e)">
     <use xlink:href="#C0_0_3333b1f7a8" x="246.578483" y="19.296" style="fill: #00b33c; fill-opacity: 0.7"/>
    </g>
    <g clip-path="url(#p05c34ec06e)">
     <use xlink:href="#C0_0_3333b1f7a8" x="240.254492" y="140.256" style="fill: #00b33c; fill-opacity: 0.7"/>
    </g>
    <g clip-path="url(#p05c34ec06e)">
     <use xlink:href="#C0_0_3333b1f7a8" x="201.515959" y="261.216" style="fill: #00b33c; fill-opacity: 0.7"/>
    </g>
    <g clip-path="url(#p05c34ec06e)">
     <use xlink:href="#C0_0_3333b1f7a8" x="225.760953" y="19.296" style="fill: #00b33c; fill-opacity: 0.7"/>
    </g>
    <g clip-path="url(#p05c34ec06e)">
     <use xlink:href="#C0_0_3333b1f7a8" x="219.173312" y="59.616" style="fill: #00b33c; fill-opacity: 0.7"/>
    </g>
    <g clip-path="url(#p05c34ec06e)">
     <use xlink:href="#C0_0_3333b1f7a8" x="292.430142" y="180.576" style="fill: #00b33c; fill-opacity: 0.7"/>
    </g>
    <g clip-path="url(#p05c34ec06e)">
     <use xlink:href="#C0_0_3333b1f7a8" x="339.338223" y="140.256" style="fill: #00b33c; fill-opacity: 0.7"/>
    </g>
    <g clip-path="url(#p05c34ec06e)">
     <use xlink:href="#C0_0_3333b1f7a8" x="324.844684" y="59.616" style="fill: #00b33c; fill-opacity: 0.7"/>
    </g>
    <g clip-path="url(#p05c34ec06e)">
     <use xlink:href="#C0_0_3333b1f7a8" x="250.26778" y="59.616" style="fill: #00b33c; fill-opacity: 0.7"/>
    </g>
    <g clip-path="url(#p05c34ec06e)">
     <use xlink:href="#C0_0_3333b1f7a8" x="240.518143" y="59.616" style="fill: #00b33c; fill-opacity: 0.7"/>
    </g>
    <g clip-path="url(#p05c34ec06e)">
     <use xlink:href="#C0_0_3333b1f7a8" x="248.949525" y="99.936" style="fill: #00b33c; fill-opacity: 0.7"/>
    </g>
    <g clip-path="url(#p05c34ec06e)">
     <use xlink:href="#C0_0_3333b1f7a8" x="312.458536" y="220.896" style="fill: #00b33c; fill-opacity: 0.7"/>
    </g>
    <g clip-path="url(#p05c34ec06e)">
     <use xlink:href="#C0_0_3333b1f7a8" x="244.734743" y="140.256" style="fill: #00b33c; fill-opacity: 0.7"/>
    </g>
    <g clip-path="url(#p05c34ec06e)">
     <use xlink:href="#C0_0_3333b1f7a8" x="121.144185" y="19.296" style="fill: #00b33c; fill-opacity: 0.7"/>
    </g>
    <g clip-path="url(#p05c34ec06e)">
     <use xlink:href="#C0_0_3333b1f7a8" x="130.630171" y="99.936" style="fill: #00b33c; fill-opacity: 0.7"/>
    </g>
    <g clip-path="url(#p05c34ec06e)">
     <use xlink:href="#C0_0_3333b1f7a8" x="296.646741" y="99.936" style="fill: #00b33c; fill-opacity: 0.7"/>
    </g>
    <g clip-path="url(#p05c34ec06e)">
     <use xlink:href="#C0_0_3333b1f7a8" x="279.254858" y="140.256" style="fill: #00b33c; fill-opacity: 0.7"/>
    </g>
    <g clip-path="url(#p05c34ec06e)">
     <use xlink:href="#C0_0_3333b1f7a8" x="286.633453" y="140.256" style="fill: #00b33c; fill-opacity: 0.7"/>
    </g>
    <g clip-path="url(#p05c34ec06e)">
     <use xlink:href="#C0_0_3333b1f7a8" x="261.072022" y="140.256" style="fill: #00b33c; fill-opacity: 0.7"/>
    </g>
    <g clip-path="url(#p05c34ec06e)">
     <use xlink:href="#C0_0_3333b1f7a8" x="225.233651" y="180.576" style="fill: #00b33c; fill-opacity: 0.7"/>
    </g>
    <g clip-path="url(#p05c34ec06e)">
     <use xlink:href="#C0_0_3333b1f7a8" x="171.739746" y="180.576" style="fill: #00b33c; fill-opacity: 0.7"/>
    </g>
    <g clip-path="url(#p05c34ec06e)">
     <use xlink:href="#C0_0_3333b1f7a8" x="226.81374" y="99.936" style="fill: #00b33c; fill-opacity: 0.7"/>
    </g>
    <g clip-path="url(#p05c34ec06e)">
     <use xlink:href="#C0_0_3333b1f7a8" x="247.633087" y="59.616" style="fill: #00b33c; fill-opacity: 0.7"/>
    </g>
    <g clip-path="url(#p05c34ec06e)">
     <use xlink:href="#C0_0_3333b1f7a8" x="348.824209" y="180.576" style="fill: #00b33c; fill-opacity: 0.7"/>
    </g>
    <g clip-path="url(#p05c34ec06e)">
     <use xlink:href="#C0_0_3333b1f7a8" x="279.782161" y="99.936" style="fill: #00b33c; fill-opacity: 0.7"/>
    </g>
    <g clip-path="url(#p05c34ec06e)">
     <use xlink:href="#C0_0_3333b1f7a8" x="227.077391" y="99.936" style="fill: #00b33c; fill-opacity: 0.7"/>
    </g>
    <g clip-path="url(#p05c34ec06e)">
     <use xlink:href="#C0_0_3333b1f7a8" x="366.479743" y="220.896" style="fill: #00b33c; fill-opacity: 0.7"/>
    </g>
    <g clip-path="url(#p05c34ec06e)">
     <use xlink:href="#C0_0_3333b1f7a8" x="272.403566" y="180.576" style="fill: #00b33c; fill-opacity: 0.7"/>
    </g>
    <g clip-path="url(#p05c34ec06e)">
     <use xlink:href="#C0_0_3333b1f7a8" x="239.199888" y="140.256" style="fill: #00b33c; fill-opacity: 0.7"/>
    </g>
    <g clip-path="url(#p05c34ec06e)">
     <use xlink:href="#C0_0_3333b1f7a8" x="135.899557" y="99.936" style="fill: #00b33c; fill-opacity: 0.7"/>
    </g>
    <g clip-path="url(#p05c34ec06e)">
     <use xlink:href="#C0_0_3333b1f7a8" x="91.102503" y="99.936" style="fill: #00b33c; fill-opacity: 0.7"/>
    </g>
    <g clip-path="url(#p05c34ec06e)">
     <use xlink:href="#C0_0_3333b1f7a8" x="213.111154" y="140.256" style="fill: #00b33c; fill-opacity: 0.7"/>
    </g>
    <g clip-path="url(#p05c34ec06e)">
     <use xlink:href="#C0_0_3333b1f7a8" x="257.382724" y="180.576" style="fill: #00b33c; fill-opacity: 0.7"/>
    </g>
    <g clip-path="url(#p05c34ec06e)">
     <use xlink:href="#C0_0_3333b1f7a8" x="272.403566" y="19.296" style="fill: #00b33c; fill-opacity: 0.7"/>
    </g>
    <g clip-path="url(#p05c34ec06e)">
     <use xlink:href="#C0_0_3333b1f7a8" x="355.939153" y="140.256" style="fill: #00b33c; fill-opacity: 0.7"/>
    </g>
    <g clip-path="url(#p05c34ec06e)">
     <use xlink:href="#C0_0_3333b1f7a8" x="207.314466" y="180.576" style="fill: #00b33c; fill-opacity: 0.7"/>
    </g>
    <g clip-path="url(#p05c34ec06e)">
     <use xlink:href="#C0_0_3333b1f7a8" x="335.121623" y="180.576" style="fill: #00b33c; fill-opacity: 0.7"/>
    </g>
    <g clip-path="url(#p05c34ec06e)">
     <use xlink:href="#C0_0_3333b1f7a8" x="316.411485" y="19.296" style="fill: #00b33c; fill-opacity: 0.7"/>
    </g>
    <g clip-path="url(#p05c34ec06e)">
     <use xlink:href="#C0_0_3333b1f7a8" x="209.949159" y="180.576" style="fill: #00b33c; fill-opacity: 0.7"/>
    </g>
    <g clip-path="url(#p05c34ec06e)">
     <use xlink:href="#C0_0_3333b1f7a8" x="226.551907" y="99.936" style="fill: #00b33c; fill-opacity: 0.7"/>
    </g>
    <g clip-path="url(#p05c34ec06e)">
     <use xlink:href="#C0_0_3333b1f7a8" x="140.379808" y="220.896" style="fill: #00b33c; fill-opacity: 0.7"/>
    </g>
    <g clip-path="url(#p05c34ec06e)">
     <use xlink:href="#C0_0_3333b1f7a8" x="165.94124" y="99.936" style="fill: #00b33c; fill-opacity: 0.7"/>
    </g>
    <g clip-path="url(#p05c34ec06e)">
     <use xlink:href="#C0_0_3333b1f7a8" x="255.011682" y="99.936" style="fill: #00b33c; fill-opacity: 0.7"/>
    </g>
    <g clip-path="url(#p05c34ec06e)">
     <use xlink:href="#C0_0_3333b1f7a8" x="280.309463" y="99.936" style="fill: #00b33c; fill-opacity: 0.7"/>
    </g>
    <g clip-path="url(#p05c34ec06e)">
     <use xlink:href="#C0_0_3333b1f7a8" x="235.51059" y="59.616" style="fill: #00b33c; fill-opacity: 0.7"/>
    </g>
    <g clip-path="url(#p05c34ec06e)">
     <use xlink:href="#C0_0_3333b1f7a8" x="269.24157" y="99.936" style="fill: #00b33c; fill-opacity: 0.7"/>
    </g>
    <g clip-path="url(#p05c34ec06e)">
     <use xlink:href="#C0_0_3333b1f7a8" x="238.672586" y="140.256" style="fill: #00b33c; fill-opacity: 0.7"/>
    </g>
    <g clip-path="url(#p05c34ec06e)">
     <use xlink:href="#C0_0_3333b1f7a8" x="252.113338" y="220.896" style="fill: #00b33c; fill-opacity: 0.7"/>
    </g>
    <g clip-path="url(#p05c34ec06e)">
     <use xlink:href="#C0_0_3333b1f7a8" x="305.607243" y="180.576" style="fill: #00b33c; fill-opacity: 0.7"/>
    </g>
    <g clip-path="url(#p05c34ec06e)">
     <use xlink:href="#C0_0_3333b1f7a8" x="217.064103" y="59.616" style="fill: #00b33c; fill-opacity: 0.7"/>
    </g>
    <g clip-path="url(#p05c34ec06e)">
     <use xlink:href="#C0_0_3333b1f7a8" x="257.119073" y="220.896" style="fill: #00b33c; fill-opacity: 0.7"/>
    </g>
    <g clip-path="url(#p05c34ec06e)">
     <use xlink:href="#C0_0_3333b1f7a8" x="335.385275" y="180.576" style="fill: #00b33c; fill-opacity: 0.7"/>
    </g>
    <g clip-path="url(#p05c34ec06e)">
     <use xlink:href="#C0_0_3333b1f7a8" x="290.850053" y="19.296" style="fill: #00b33c; fill-opacity: 0.7"/>
    </g>
    <g clip-path="url(#p05c34ec06e)">
     <use xlink:href="#C0_0_3333b1f7a8" x="315.35688" y="19.296" style="fill: #00b33c; fill-opacity: 0.7"/>
    </g>
    <g clip-path="url(#p05c34ec06e)">
     <use xlink:href="#C0_0_3333b1f7a8" x="313.776792" y="99.936" style="fill: #00b33c; fill-opacity: 0.7"/>
    </g>
    <g clip-path="url(#p05c34ec06e)">
     <use xlink:href="#C0_0_3333b1f7a8" x="356.730106" y="180.576" style="fill: #00b33c; fill-opacity: 0.7"/>
    </g>
    <g clip-path="url(#p05c34ec06e)">
     <use xlink:href="#C0_0_3333b1f7a8" x="350.667949" y="99.936" style="fill: #00b33c; fill-opacity: 0.7"/>
    </g>
    <g clip-path="url(#p05c34ec06e)">
     <use xlink:href="#C0_0_3333b1f7a8" x="188.077025" y="140.256" style="fill: #00b33c; fill-opacity: 0.7"/>
    </g>
    <g clip-path="url(#p05c34ec06e)">
     <use xlink:href="#C0_0_3333b1f7a8" x="122.196972" y="180.576" style="fill: #00b33c; fill-opacity: 0.7"/>
    </g>
    <g clip-path="url(#p05c34ec06e)">
     <use xlink:href="#C0_0_3333b1f7a8" x="62.642727" y="59.616" style="fill: #00b33c; fill-opacity: 0.7"/>
    </g>
    <g clip-path="url(#p05c34ec06e)">
     <use xlink:href="#C0_0_3333b1f7a8" x="347.769604" y="180.576" style="fill: #00b33c; fill-opacity: 0.7"/>
    </g>
    <g clip-path="url(#p05c34ec06e)">
     <use xlink:href="#C0_0_3333b1f7a8" x="322.208173" y="180.576" style="fill: #00b33c; fill-opacity: 0.7"/>
    </g>
    <g clip-path="url(#p05c34ec06e)">
     <use xlink:href="#C0_0_3333b1f7a8" x="264.761319" y="180.576" style="fill: #00b33c; fill-opacity: 0.7"/>
    </g>
    <g clip-path="url(#p05c34ec06e)">
     <use xlink:href="#C0_0_3333b1f7a8" x="162.251942" y="99.936" style="fill: #00b33c; fill-opacity: 0.7"/>
    </g>
    <g clip-path="url(#p05c34ec06e)">
     <use xlink:href="#C0_0_3333b1f7a8" x="387.297273" y="220.896" style="fill: #00b33c; fill-opacity: 0.7"/>
    </g>
    <g clip-path="url(#p05c34ec06e)">
     <use xlink:href="#C0_0_3333b1f7a8" x="213.374805" y="99.936" style="fill: #00b33c; fill-opacity: 0.7"/>
    </g>
    <g clip-path="url(#p05c34ec06e)">
     <use xlink:href="#C0_0_3333b1f7a8" x="235.51059" y="99.936" style="fill: #00b33c; fill-opacity: 0.7"/>
    </g>
    <g clip-path="url(#p05c34ec06e)">
     <use xlink:href="#C0_0_3333b1f7a8" x="258.70098" y="59.616" style="fill: #00b33c; fill-opacity: 0.7"/>
    </g>
    <g clip-path="url(#p05c34ec06e)">
     <use xlink:href="#C0_0_3333b1f7a8" x="117.980372" y="180.576" style="fill: #00b33c; fill-opacity: 0.7"/>
    </g>
    <g clip-path="url(#p05c34ec06e)">
     <use xlink:href="#C0_0_3333b1f7a8" x="341.445614" y="99.936" style="fill: #00b33c; fill-opacity: 0.7"/>
    </g>
    <g clip-path="url(#p05c34ec06e)">
     <use xlink:href="#C0_0_3333b1f7a8" x="304.552639" y="140.256" style="fill: #00b33c; fill-opacity: 0.7"/>
    </g>
    <g clip-path="url(#p05c34ec06e)">
     <use xlink:href="#C0_0_3333b1f7a8" x="194.137364" y="180.576" style="fill: #00b33c; fill-opacity: 0.7"/>
    </g>
    <g clip-path="url(#p05c34ec06e)">
     <use xlink:href="#C0_0_3333b1f7a8" x="309.560192" y="180.576" style="fill: #00b33c; fill-opacity: 0.7"/>
    </g>
    <g clip-path="url(#p05c34ec06e)">
     <use xlink:href="#C0_0_3333b1f7a8" x="182.807639" y="180.576" style="fill: #00b33c; fill-opacity: 0.7"/>
    </g>
    <g clip-path="url(#p05c34ec06e)">
     <use xlink:href="#C0_0_3333b1f7a8" x="320.100782" y="99.936" style="fill: #00b33c; fill-opacity: 0.7"/>
    </g>
    <g clip-path="url(#p05c34ec06e)">
     <use xlink:href="#C0_0_3333b1f7a8" x="145.914664" y="59.616" style="fill: #00b33c; fill-opacity: 0.7"/>
    </g>
    <g clip-path="url(#p05c34ec06e)">
     <use xlink:href="#C0_0_3333b1f7a8" x="322.208173" y="59.616" style="fill: #00b33c; fill-opacity: 0.7"/>
    </g>
   </g>
   <g id="matplotlib.axis_1">
    <g id="xtick_1">
     <g id="line2d_1">
      <defs>
       <path id="m4e98940898" d="M 0 0 
L 0 3.5 
" style="stroke: #000000; stroke-width: 0.8"/>
      </defs>
      <g>
       <use xlink:href="#m4e98940898" x="75.818011" y="273.312" style="stroke: #000000; stroke-width: 0.8"/>
      </g>
     </g>
     <g id="text_1">
      <!-- 75.0 -->
      <g transform="translate(64.685198 287.910437)scale(0.1 -0.1)">
       <defs>
        <path id="DejaVuSerif-37" d="M 3609 4347 
L 1784 0 
L 1319 0 
L 3059 4153 
L 903 4153 
L 903 3578 
L 538 3578 
L 538 4666 
L 3609 4666 
L 3609 4347 
z
" transform="scale(0.015625)"/>
        <path id="DejaVuSerif-35" d="M 3219 4666 
L 3219 4153 
L 1081 4153 
L 1081 2816 
Q 1244 2928 1461 2984 
Q 1678 3041 1947 3041 
Q 2703 3041 3140 2622 
Q 3578 2203 3578 1478 
Q 3578 738 3136 323 
Q 2694 -91 1894 -91 
Q 1572 -91 1234 -12 
Q 897 66 544 225 
L 544 1131 
L 897 1131 
Q 925 688 1179 453 
Q 1434 219 1894 219 
Q 2388 219 2653 544 
Q 2919 869 2919 1478 
Q 2919 2084 2655 2407 
Q 2391 2731 1894 2731 
Q 1613 2731 1398 2631 
Q 1184 2531 1019 2322 
L 750 2322 
L 750 4666 
L 3219 4666 
z
" transform="scale(0.015625)"/>
        <path id="DejaVuSerif-2e" d="M 603 325 
Q 603 500 722 622 
Q 841 744 1019 744 
Q 1191 744 1312 622 
Q 1434 500 1434 325 
Q 1434 153 1312 31 
Q 1191 -91 1019 -91 
Q 841 -91 722 29 
Q 603 150 603 325 
z
" transform="scale(0.015625)"/>
        <path id="DejaVuSerif-30" d="M 2034 219 
Q 2513 219 2750 744 
Q 2988 1269 2988 2328 
Q 2988 3391 2750 3916 
Q 2513 4441 2034 4441 
Q 1556 4441 1318 3916 
Q 1081 3391 1081 2328 
Q 1081 1269 1318 744 
Q 1556 219 2034 219 
z
M 2034 -91 
Q 1275 -91 848 546 
Q 422 1184 422 2328 
Q 422 3475 848 4112 
Q 1275 4750 2034 4750 
Q 2797 4750 3222 4112 
Q 3647 3475 3647 2328 
Q 3647 1184 3222 546 
Q 2797 -91 2034 -91 
z
" transform="scale(0.015625)"/>
       </defs>
       <use xlink:href="#DejaVuSerif-37"/>
       <use xlink:href="#DejaVuSerif-35" x="63.623047"/>
       <use xlink:href="#DejaVuSerif-2e" x="127.246094"/>
       <use xlink:href="#DejaVuSerif-30" x="159.033203"/>
      </g>
     </g>
    </g>
    <g id="xtick_2">
     <g id="line2d_2">
      <g>
       <use xlink:href="#m4e98940898" x="121.275102" y="273.312" style="stroke: #000000; stroke-width: 0.8"/>
      </g>
     </g>
     <g id="text_2">
      <!-- 77.5 -->
      <g transform="translate(110.142289 287.910437)scale(0.1 -0.1)">
       <use xlink:href="#DejaVuSerif-37"/>
       <use xlink:href="#DejaVuSerif-37" x="63.623047"/>
       <use xlink:href="#DejaVuSerif-2e" x="127.246094"/>
       <use xlink:href="#DejaVuSerif-35" x="159.033203"/>
      </g>
     </g>
    </g>
    <g id="xtick_3">
     <g id="line2d_3">
      <g>
       <use xlink:href="#m4e98940898" x="166.732193" y="273.312" style="stroke: #000000; stroke-width: 0.8"/>
      </g>
     </g>
     <g id="text_3">
      <!-- 80.0 -->
      <g transform="translate(155.599381 287.910437)scale(0.1 -0.1)">
       <defs>
        <path id="DejaVuSerif-38" d="M 2981 1275 
Q 2981 1775 2732 2051 
Q 2484 2328 2034 2328 
Q 1584 2328 1336 2051 
Q 1088 1775 1088 1275 
Q 1088 772 1336 495 
Q 1584 219 2034 219 
Q 2484 219 2732 495 
Q 2981 772 2981 1275 
z
M 2853 3541 
Q 2853 3966 2637 4203 
Q 2422 4441 2034 4441 
Q 1650 4441 1433 4203 
Q 1216 3966 1216 3541 
Q 1216 3113 1433 2875 
Q 1650 2638 2034 2638 
Q 2422 2638 2637 2875 
Q 2853 3113 2853 3541 
z
M 2516 2484 
Q 3047 2413 3344 2092 
Q 3641 1772 3641 1275 
Q 3641 619 3225 264 
Q 2809 -91 2034 -91 
Q 1263 -91 845 264 
Q 428 619 428 1275 
Q 428 1772 725 2092 
Q 1022 2413 1556 2484 
Q 1084 2569 832 2842 
Q 581 3116 581 3541 
Q 581 4103 968 4426 
Q 1356 4750 2034 4750 
Q 2713 4750 3100 4426 
Q 3488 4103 3488 3541 
Q 3488 3116 3236 2842 
Q 2984 2569 2516 2484 
z
" transform="scale(0.015625)"/>
       </defs>
       <use xlink:href="#DejaVuSerif-38"/>
       <use xlink:href="#DejaVuSerif-30" x="63.623047"/>
       <use xlink:href="#DejaVuSerif-2e" x="127.246094"/>
       <use xlink:href="#DejaVuSerif-30" x="159.033203"/>
      </g>
     </g>
    </g>
    <g id="xtick_4">
     <g id="line2d_4">
      <g>
       <use xlink:href="#m4e98940898" x="212.189284" y="273.312" style="stroke: #000000; stroke-width: 0.8"/>
      </g>
     </g>
     <g id="text_4">
      <!-- 82.5 -->
      <g transform="translate(201.056472 287.910437)scale(0.1 -0.1)">
       <defs>
        <path id="DejaVuSerif-32" d="M 819 3553 
L 469 3553 
L 469 4384 
Q 803 4563 1142 4656 
Q 1481 4750 1806 4750 
Q 2534 4750 2956 4397 
Q 3378 4044 3378 3438 
Q 3378 2753 2422 1800 
Q 2347 1728 2309 1691 
L 1131 513 
L 3078 513 
L 3078 1088 
L 3444 1088 
L 3444 0 
L 434 0 
L 434 341 
L 1850 1753 
Q 2319 2222 2519 2614 
Q 2719 3006 2719 3438 
Q 2719 3909 2473 4175 
Q 2228 4441 1797 4441 
Q 1350 4441 1106 4219 
Q 863 3997 819 3553 
z
" transform="scale(0.015625)"/>
       </defs>
       <use xlink:href="#DejaVuSerif-38"/>
       <use xlink:href="#DejaVuSerif-32" x="63.623047"/>
       <use xlink:href="#DejaVuSerif-2e" x="127.246094"/>
       <use xlink:href="#DejaVuSerif-35" x="159.033203"/>
      </g>
     </g>
    </g>
    <g id="xtick_5">
     <g id="line2d_5">
      <g>
       <use xlink:href="#m4e98940898" x="257.646375" y="273.312" style="stroke: #000000; stroke-width: 0.8"/>
      </g>
     </g>
     <g id="text_5">
      <!-- 85.0 -->
      <g transform="translate(246.513563 287.910437)scale(0.1 -0.1)">
       <use xlink:href="#DejaVuSerif-38"/>
       <use xlink:href="#DejaVuSerif-35" x="63.623047"/>
       <use xlink:href="#DejaVuSerif-2e" x="127.246094"/>
       <use xlink:href="#DejaVuSerif-30" x="159.033203"/>
      </g>
     </g>
    </g>
    <g id="xtick_6">
     <g id="line2d_6">
      <g>
       <use xlink:href="#m4e98940898" x="303.103467" y="273.312" style="stroke: #000000; stroke-width: 0.8"/>
      </g>
     </g>
     <g id="text_6">
      <!-- 87.5 -->
      <g transform="translate(291.970654 287.910437)scale(0.1 -0.1)">
       <use xlink:href="#DejaVuSerif-38"/>
       <use xlink:href="#DejaVuSerif-37" x="63.623047"/>
       <use xlink:href="#DejaVuSerif-2e" x="127.246094"/>
       <use xlink:href="#DejaVuSerif-35" x="159.033203"/>
      </g>
     </g>
    </g>
    <g id="xtick_7">
     <g id="line2d_7">
      <g>
       <use xlink:href="#m4e98940898" x="348.560558" y="273.312" style="stroke: #000000; stroke-width: 0.8"/>
      </g>
     </g>
     <g id="text_7">
      <!-- 90.0 -->
      <g transform="translate(337.427745 287.910437)scale(0.1 -0.1)">
       <defs>
        <path id="DejaVuSerif-39" d="M 2994 2091 
Q 2784 1856 2512 1740 
Q 2241 1625 1900 1625 
Q 1206 1625 804 2044 
Q 403 2463 403 3188 
Q 403 3897 839 4323 
Q 1275 4750 2003 4750 
Q 2794 4750 3217 4161 
Q 3641 3572 3641 2478 
Q 3641 1253 3137 581 
Q 2634 -91 1722 -91 
Q 1475 -91 1203 -44 
Q 931 3 647 97 
L 647 872 
L 997 872 
Q 1038 556 1241 387 
Q 1444 219 1784 219 
Q 2391 219 2687 676 
Q 2984 1134 2994 2091 
z
M 1978 4441 
Q 1534 4441 1298 4117 
Q 1063 3794 1063 3188 
Q 1063 2581 1298 2256 
Q 1534 1931 1978 1931 
Q 2422 1931 2658 2245 
Q 2894 2559 2894 3150 
Q 2894 3772 2656 4106 
Q 2419 4441 1978 4441 
z
" transform="scale(0.015625)"/>
       </defs>
       <use xlink:href="#DejaVuSerif-39"/>
       <use xlink:href="#DejaVuSerif-30" x="63.623047"/>
       <use xlink:href="#DejaVuSerif-2e" x="127.246094"/>
       <use xlink:href="#DejaVuSerif-30" x="159.033203"/>
      </g>
     </g>
    </g>
    <g id="xtick_8">
     <g id="line2d_8">
      <g>
       <use xlink:href="#m4e98940898" x="394.017649" y="273.312" style="stroke: #000000; stroke-width: 0.8"/>
      </g>
     </g>
     <g id="text_8">
      <!-- 92.5 -->
      <g transform="translate(382.884837 287.910437)scale(0.1 -0.1)">
       <use xlink:href="#DejaVuSerif-39"/>
       <use xlink:href="#DejaVuSerif-32" x="63.623047"/>
       <use xlink:href="#DejaVuSerif-2e" x="127.246094"/>
       <use xlink:href="#DejaVuSerif-35" x="159.033203"/>
      </g>
     </g>
    </g>
    <g id="text_9">
     <!-- NNS -->
     <g transform="translate(205.49 306.147625)scale(0.16 -0.16)">
      <defs>
       <path id="DejaVuSerif-4e" d="M 313 0 
L 313 331 
L 941 331 
L 941 4331 
L 313 4331 
L 313 4666 
L 1509 4666 
L 4306 984 
L 4306 4331 
L 3681 4331 
L 3681 4666 
L 5319 4666 
L 5319 4331 
L 4691 4331 
L 4691 -91 
L 4313 -91 
L 1325 3841 
L 1325 331 
L 1953 331 
L 1953 0 
L 313 0 
z
" transform="scale(0.015625)"/>
       <path id="DejaVuSerif-53" d="M 594 225 
L 594 1288 
L 953 1284 
Q 969 753 1261 498 
Q 1553 244 2150 244 
Q 2706 244 2998 464 
Q 3291 684 3291 1106 
Q 3291 1444 3114 1625 
Q 2938 1806 2369 1978 
L 1753 2163 
Q 1084 2366 811 2669 
Q 538 2972 538 3500 
Q 538 4094 959 4422 
Q 1381 4750 2144 4750 
Q 2469 4750 2856 4679 
Q 3244 4609 3681 4475 
L 3681 3481 
L 3328 3481 
Q 3275 3975 2998 4195 
Q 2722 4416 2156 4416 
Q 1663 4416 1405 4214 
Q 1147 4013 1147 3628 
Q 1147 3294 1340 3103 
Q 1534 2913 2163 2725 
L 2741 2553 
Q 3375 2363 3645 2067 
Q 3916 1772 3916 1275 
Q 3916 597 3481 253 
Q 3047 -91 2188 -91 
Q 1803 -91 1404 -12 
Q 1006 66 594 225 
z
" transform="scale(0.015625)"/>
      </defs>
      <use xlink:href="#DejaVuSerif-4e"/>
      <use xlink:href="#DejaVuSerif-4e" x="87.5"/>
      <use xlink:href="#DejaVuSerif-53" x="175"/>
     </g>
    </g>
   </g>
   <g id="matplotlib.axis_2">
    <g id="ytick_1">
     <g id="line2d_9">
      <defs>
       <path id="m6161618731" d="M 0 0 
L -3.5 0 
" style="stroke: #000000; stroke-width: 0.8"/>
      </defs>
      <g>
       <use xlink:href="#m6161618731" x="46.41" y="261.216" style="stroke: #000000; stroke-width: 0.8"/>
      </g>
     </g>
     <g id="text_10">
      <!-- 4 -->
      <g transform="translate(33.0475 265.015219)scale(0.1 -0.1)">
       <defs>
        <path id="DejaVuSerif-34" d="M 2234 1581 
L 2234 4063 
L 641 1581 
L 2234 1581 
z
M 3609 0 
L 1484 0 
L 1484 331 
L 2234 331 
L 2234 1247 
L 197 1247 
L 197 1588 
L 2241 4750 
L 2859 4750 
L 2859 1581 
L 3750 1581 
L 3750 1247 
L 2859 1247 
L 2859 331 
L 3609 331 
L 3609 0 
z
" transform="scale(0.015625)"/>
       </defs>
       <use xlink:href="#DejaVuSerif-34"/>
      </g>
     </g>
    </g>
    <g id="ytick_2">
     <g id="line2d_10">
      <g>
       <use xlink:href="#m6161618731" x="46.41" y="220.896" style="stroke: #000000; stroke-width: 0.8"/>
      </g>
     </g>
     <g id="text_11">
      <!-- 5 -->
      <g transform="translate(33.0475 224.695219)scale(0.1 -0.1)">
       <use xlink:href="#DejaVuSerif-35"/>
      </g>
     </g>
    </g>
    <g id="ytick_3">
     <g id="line2d_11">
      <g>
       <use xlink:href="#m6161618731" x="46.41" y="180.576" style="stroke: #000000; stroke-width: 0.8"/>
      </g>
     </g>
     <g id="text_12">
      <!-- 6 -->
      <g transform="translate(33.0475 184.375219)scale(0.1 -0.1)">
       <defs>
        <path id="DejaVuSerif-36" d="M 2094 219 
Q 2534 219 2771 542 
Q 3009 866 3009 1472 
Q 3009 2078 2771 2401 
Q 2534 2725 2094 2725 
Q 1647 2725 1412 2412 
Q 1178 2100 1178 1509 
Q 1178 888 1415 553 
Q 1653 219 2094 219 
z
M 1075 2569 
Q 1288 2803 1556 2918 
Q 1825 3034 2163 3034 
Q 2859 3034 3264 2615 
Q 3669 2197 3669 1472 
Q 3669 763 3233 336 
Q 2797 -91 2069 -91 
Q 1278 -91 853 498 
Q 428 1088 428 2181 
Q 428 3406 931 4078 
Q 1434 4750 2350 4750 
Q 2597 4750 2869 4703 
Q 3141 4656 3425 4563 
L 3425 3794 
L 3072 3794 
Q 3034 4109 2831 4275 
Q 2628 4441 2284 4441 
Q 1678 4441 1381 3981 
Q 1084 3522 1075 2569 
z
" transform="scale(0.015625)"/>
       </defs>
       <use xlink:href="#DejaVuSerif-36"/>
      </g>
     </g>
    </g>
    <g id="ytick_4">
     <g id="line2d_12">
      <g>
       <use xlink:href="#m6161618731" x="46.41" y="140.256" style="stroke: #000000; stroke-width: 0.8"/>
      </g>
     </g>
     <g id="text_13">
      <!-- 7 -->
      <g transform="translate(33.0475 144.055219)scale(0.1 -0.1)">
       <use xlink:href="#DejaVuSerif-37"/>
      </g>
     </g>
    </g>
    <g id="ytick_5">
     <g id="line2d_13">
      <g>
       <use xlink:href="#m6161618731" x="46.41" y="99.936" style="stroke: #000000; stroke-width: 0.8"/>
      </g>
     </g>
     <g id="text_14">
      <!-- 8 -->
      <g transform="translate(33.0475 103.735219)scale(0.1 -0.1)">
       <use xlink:href="#DejaVuSerif-38"/>
      </g>
     </g>
    </g>
    <g id="ytick_6">
     <g id="line2d_14">
      <g>
       <use xlink:href="#m6161618731" x="46.41" y="59.616" style="stroke: #000000; stroke-width: 0.8"/>
      </g>
     </g>
     <g id="text_15">
      <!-- 9 -->
      <g transform="translate(33.0475 63.415219)scale(0.1 -0.1)">
       <use xlink:href="#DejaVuSerif-39"/>
      </g>
     </g>
    </g>
    <g id="ytick_7">
     <g id="line2d_15">
      <g>
       <use xlink:href="#m6161618731" x="46.41" y="19.296" style="stroke: #000000; stroke-width: 0.8"/>
      </g>
     </g>
     <g id="text_16">
      <!-- 10 -->
      <g transform="translate(26.685 23.095219)scale(0.1 -0.1)">
       <defs>
        <path id="DejaVuSerif-31" d="M 909 0 
L 909 331 
L 1722 331 
L 1722 4213 
L 781 3603 
L 781 4013 
L 1919 4750 
L 2350 4750 
L 2350 331 
L 3163 331 
L 3163 0 
L 909 0 
z
" transform="scale(0.015625)"/>
       </defs>
       <use xlink:href="#DejaVuSerif-31"/>
       <use xlink:href="#DejaVuSerif-30" x="63.623047"/>
      </g>
     </g>
    </g>
    <g id="text_17">
     <!-- ADOS -->
     <g transform="translate(19.3575 164.486)rotate(-90)scale(0.16 -0.16)">
      <defs>
       <path id="DejaVuSerif-41" d="M 1281 1691 
L 2994 1691 
L 2138 3909 
L 1281 1691 
z
M -38 0 
L -38 331 
L 372 331 
L 2034 4666 
L 2559 4666 
L 4225 331 
L 4684 331 
L 4684 0 
L 2988 0 
L 2988 331 
L 3506 331 
L 3116 1356 
L 1153 1356 
L 763 331 
L 1275 331 
L 1275 0 
L -38 0 
z
" transform="scale(0.015625)"/>
       <path id="DejaVuSerif-44" d="M 1581 331 
L 2163 331 
Q 3072 331 3558 850 
Q 4044 1369 4044 2338 
Q 4044 3306 3559 3818 
Q 3075 4331 2163 4331 
L 1581 4331 
L 1581 331 
z
M 353 0 
L 353 331 
L 947 331 
L 947 4331 
L 353 4331 
L 353 4666 
L 2209 4666 
Q 3416 4666 4089 4050 
Q 4763 3434 4763 2338 
Q 4763 1238 4088 619 
Q 3413 0 2209 0 
L 353 0 
z
" transform="scale(0.015625)"/>
       <path id="DejaVuSerif-4f" d="M 2625 244 
Q 3391 244 3781 770 
Q 4172 1297 4172 2328 
Q 4172 3363 3781 3889 
Q 3391 4416 2625 4416 
Q 1856 4416 1465 3889 
Q 1075 3363 1075 2328 
Q 1075 1297 1465 770 
Q 1856 244 2625 244 
z
M 2625 -91 
Q 2150 -91 1751 65 
Q 1353 222 1050 525 
Q 700 875 529 1319 
Q 359 1763 359 2328 
Q 359 2894 529 3339 
Q 700 3784 1050 4134 
Q 1356 4441 1750 4595 
Q 2144 4750 2625 4750 
Q 3641 4750 4266 4084 
Q 4891 3419 4891 2328 
Q 4891 1769 4719 1320 
Q 4547 872 4197 525 
Q 3891 219 3497 64 
Q 3103 -91 2625 -91 
z
" transform="scale(0.015625)"/>
      </defs>
      <use xlink:href="#DejaVuSerif-41"/>
      <use xlink:href="#DejaVuSerif-44" x="72.216797"/>
      <use xlink:href="#DejaVuSerif-4f" x="152.392578"/>
      <use xlink:href="#DejaVuSerif-53" x="234.375"/>
     </g>
    </g>
   </g>
   <g id="line2d_16">
    <path d="M 234.192335 115.516783 
L 243.416488 117.026749 
L 181.753034 106.932627 
L 299.283253 126.171971 
L 182.016685 106.975786 
L 213.111154 112.065857 
L 297.174044 125.8267 
L 375.965729 138.724662 
L 176.745481 106.112906 
L 341.445614 133.073823 
L 269.24157 121.254238 
L 226.551907 114.266068 
L 365.68879 137.042358 
L 230.503037 114.912856 
L 181.753034 106.932627 
L 308.505587 127.681639 
L 242.889185 116.940431 
L 283.471458 123.583628 
L 366.216092 137.128676 
L 357.782893 135.748186 
L 303.761685 126.905077 
L 292.957444 125.136455 
L 232.612246 115.258127 
L 163.306547 103.912993 
L 200.199522 109.952262 
L 341.445614 133.073823 
L 138.272417 99.814981 
L 126.14992 97.830564 
L 331.959628 131.520995 
L 208.894554 111.375612 
L 248.16039 117.803312 
L 354.884548 135.273736 
L 131.948427 98.779763 
L 228.131995 114.524724 
L 303.498034 126.861918 
L 213.902107 112.195334 
L 120.616883 96.924823 
L 207.841768 111.203275 
L 236.828846 115.948372 
L 284.789714 123.799422 
L 138.536068 99.85814 
L 219.173312 113.058214 
L 204.679773 110.685665 
L 246.578483 117.544358 
L 240.254492 116.50914 
L 201.515959 110.167759 
L 225.760953 114.136591 
L 219.173312 113.058214 
L 292.430142 125.050137 
L 339.338223 132.728849 
L 324.844684 130.3563 
L 250.26778 118.148285 
L 240.518143 116.552299 
L 248.949525 117.932491 
L 312.458536 128.328725 
L 244.734743 117.242544 
L 121.144185 97.011141 
L 130.630171 98.563968 
L 296.646741 125.740382 
L 279.254858 122.893383 
L 286.633453 124.101237 
L 261.072022 119.916907 
L 225.233651 114.050274 
L 171.739746 105.293482 
L 226.81374 114.308929 
L 247.633087 117.716994 
L 348.824209 134.281677 
L 279.782161 122.979701 
L 227.077391 114.352088 
L 366.479743 137.171834 
L 272.403566 121.771847 
L 239.199888 116.336505 
L 135.899557 99.426551 
L 91.102503 92.093408 
L 213.111154 112.065857 
L 257.382724 119.31298 
L 272.403566 121.771847 
L 355.939153 135.446372 
L 207.314466 111.116957 
L 335.121623 132.038604 
L 316.411485 128.975811 
L 209.949159 111.548248 
L 226.551907 114.266068 
L 140.379808 100.159954 
L 165.94124 104.344284 
L 255.011682 118.924848 
L 280.309463 123.066018 
L 235.51059 115.732578 
L 269.24157 121.254238 
L 238.672586 116.250187 
L 252.113338 118.450398 
L 305.607243 127.207189 
L 217.064103 112.712943 
L 257.119073 119.269821 
L 335.385275 132.081763 
L 290.850053 124.791481 
L 315.35688 128.803175 
L 313.776792 128.54452 
L 356.730106 135.575848 
L 350.667949 134.583491 
L 188.077025 107.967845 
L 122.196972 97.183479 
L 62.642727 87.434628 
L 347.769604 134.109041 
L 322.208173 129.924711 
L 264.761319 120.520834 
L 162.251942 103.740357 
L 387.297273 140.579602 
L 213.374805 112.109016 
L 235.51059 115.732578 
L 258.70098 119.528775 
L 117.980372 96.493234 
L 341.445614 133.073823 
L 304.552639 127.034554 
L 194.137364 108.959905 
L 309.560192 127.854275 
L 182.807639 107.105263 
L 320.100782 129.579738 
L 145.914664 101.065994 
L 322.208173 129.924711 
" clip-path="url(#p05c34ec06e)" style="fill: none; stroke: #007326; stroke-width: 2; stroke-linecap: square"/>
   </g>
   <g id="patch_3">
    <path d="M 46.41 273.312 
L 46.41 7.2 
" style="fill: none; stroke: #000000; stroke-width: 0.8; stroke-linejoin: miter; stroke-linecap: square"/>
   </g>
   <g id="patch_4">
    <path d="M 403.53 273.312 
L 403.53 7.2 
" style="fill: none; stroke: #000000; stroke-width: 0.8; stroke-linejoin: miter; stroke-linecap: square"/>
   </g>
   <g id="patch_5">
    <path d="M 46.41 273.312 
L 403.53 273.312 
" style="fill: none; stroke: #000000; stroke-width: 0.8; stroke-linejoin: miter; stroke-linecap: square"/>
   </g>
   <g id="patch_6">
    <path d="M 46.41 7.2 
L 403.53 7.2 
" style="fill: none; stroke: #000000; stroke-width: 0.8; stroke-linejoin: miter; stroke-linecap: square"/>
   </g>
   <g id="text_18">
    <g id="patch_7">
     <path d="M 318.5748 56.296762 
L 390.58605 56.296762 
L 390.58605 11.325637 
L 318.5748 11.325637 
z
" style="fill: #ffffff; opacity: 0.5; stroke: #000000; stroke-linejoin: miter"/>
    </g>
    <!-- r=-0.19 -->
    <g style="fill: #808080" transform="translate(328.5348 30.403762)scale(0.12 -0.12)">
     <defs>
      <path id="DejaVuSerif-72" d="M 3059 3328 
L 3059 2497 
L 2728 2497 
Q 2713 2744 2591 2866 
Q 2469 2988 2234 2988 
Q 1809 2988 1582 2694 
Q 1356 2400 1356 1850 
L 1356 331 
L 2022 331 
L 2022 0 
L 263 0 
L 263 331 
L 781 331 
L 781 2994 
L 231 2994 
L 231 3322 
L 1356 3322 
L 1356 2731 
Q 1525 3078 1790 3245 
Q 2056 3413 2438 3413 
Q 2578 3413 2733 3391 
Q 2888 3369 3059 3328 
z
" transform="scale(0.015625)"/>
      <path id="DejaVuSerif-3d" d="M 678 2894 
L 4684 2894 
L 4684 2394 
L 678 2394 
L 678 2894 
z
M 678 1619 
L 4684 1619 
L 4684 1119 
L 678 1119 
L 678 1619 
z
" transform="scale(0.015625)"/>
      <path id="DejaVuSerif-2d" d="M 281 1959 
L 1881 1959 
L 1881 1472 
L 281 1472 
L 281 1959 
z
" transform="scale(0.015625)"/>
     </defs>
     <use xlink:href="#DejaVuSerif-72"/>
     <use xlink:href="#DejaVuSerif-3d" x="47.802734"/>
     <use xlink:href="#DejaVuSerif-2d" x="131.591797"/>
     <use xlink:href="#DejaVuSerif-30" x="165.380859"/>
     <use xlink:href="#DejaVuSerif-2e" x="229.003906"/>
     <use xlink:href="#DejaVuSerif-31" x="260.791016"/>
     <use xlink:href="#DejaVuSerif-39" x="324.414062"/>
    </g>
    <!-- p=0.040 -->
    <g style="fill: #808080" transform="translate(328.5348 43.841137)scale(0.12 -0.12)">
     <defs>
      <path id="DejaVuSerif-70" d="M 1313 1825 
L 1313 1497 
Q 1313 897 1542 583 
Q 1772 269 2209 269 
Q 2650 269 2876 622 
Q 3103 975 3103 1663 
Q 3103 2353 2876 2703 
Q 2650 3053 2209 3053 
Q 1772 3053 1542 2737 
Q 1313 2422 1313 1825 
z
M 738 2988 
L 184 2988 
L 184 3322 
L 1313 3322 
L 1313 2803 
Q 1481 3116 1742 3264 
Q 2003 3413 2388 3413 
Q 3000 3413 3387 2928 
Q 3775 2444 3775 1663 
Q 3775 881 3387 395 
Q 3000 -91 2388 -91 
Q 2003 -91 1742 57 
Q 1481 206 1313 519 
L 1313 -997 
L 1856 -997 
L 1856 -1331 
L 184 -1331 
L 184 -997 
L 738 -997 
L 738 2988 
z
" transform="scale(0.015625)"/>
     </defs>
     <use xlink:href="#DejaVuSerif-70"/>
     <use xlink:href="#DejaVuSerif-3d" x="64.013672"/>
     <use xlink:href="#DejaVuSerif-30" x="147.802734"/>
     <use xlink:href="#DejaVuSerif-2e" x="211.425781"/>
     <use xlink:href="#DejaVuSerif-30" x="243.212891"/>
     <use xlink:href="#DejaVuSerif-34" x="306.835938"/>
     <use xlink:href="#DejaVuSerif-30" x="370.458984"/>
    </g>
   </g>
  </g>
 </g>
 <defs>
  <clipPath id="p05c34ec06e">
   <rect x="46.41" y="7.2" width="357.12" height="266.112"/>
  </clipPath>
 </defs>
</svg>
